<?xml version="1.0" encoding="UTF-8" standalone="no"?>
<!DOCTYPE svg PUBLIC "-//W3C//DTD SVG 1.1//EN" "http://www.w3.org/Graphics/SVG/1.1/DTD/svg11.dtd">
<!-- Generated by Microsoft Visio, SVG Export SSL Class Diagram.svg Page-1 -->
<svg xmlns="http://www.w3.org/2000/svg" xmlns:xlink="http://www.w3.org/1999/xlink" xmlns:ev="http://www.w3.org/2001/xml-events"
		width="10.5104in" height="12.7136in" viewBox="0 0 756.75 915.383" xml:space="preserve" color-interpolation-filters="sRGB"
		class="st15">
	<style type="text/css">
	<![CDATA[
		.st1 {fill:#f2f2f2;stroke:#000000;stroke-linecap:round;stroke-linejoin:round;stroke-width:0.75}
		.st2 {fill:#ffffff;stroke:#000000;stroke-linecap:round;stroke-linejoin:round;stroke-width:0.75}
		.st3 {fill:#000000;font-family:Calibri;font-size:1.00001em}
		.st4 {fill:#ffffff;fill-opacity:0}
		.st5 {stroke:#000000;stroke-linecap:round;stroke-linejoin:round;stroke-width:0.75;visibility:hidden}
		.st6 {fill:#000000;font-family:Calibri;font-size:0.833336em}
		.st7 {font-size:1em}
		.st8 {fill:#ffffff}
		.st9 {stroke:#000000;stroke-dasharray:1.5,0.75;stroke-linecap:butt;stroke-width:0.75}
		.st10 {marker-end:url(#mrkr14-122);stroke:#000000;stroke-linecap:round;stroke-linejoin:round;stroke-width:0.75}
		.st11 {fill:#000000;fill-opacity:1;stroke:#000000;stroke-opacity:1;stroke-width:0.22935779816514}
		.st12 {stroke:#000000;stroke-linecap:round;stroke-linejoin:round;stroke-width:0.75}
		.st13 {fill:#ffffff;stroke:none;stroke-linecap:butt;stroke-width:7.2}
		.st14 {fill:#000000;font-family:Calibri;font-size:0.666664em}
		.st15 {fill:none;fill-rule:evenodd;font-size:12px;overflow:visible;stroke-linecap:square;stroke-miterlimit:3}
	]]>
	</style>

	<defs id="Markers">
		<g id="lend14">
			<path d="M 3 -1 L 0 0 L 3 1 L 3 -1 " style="stroke-linecap:round;stroke-linejoin:round;fill:none"/>
		</g>
		<marker id="mrkr14-122" class="st11" refX="-13.08" orient="auto" markerUnits="strokeWidth" overflow="visible">
			<use xlink:href="#lend14" transform="scale(-4.36,-4.36) "/>
		</marker>
	</defs>
	<g>
		<title>Page-1</title>
		<g id="group1-1" transform="translate(18.375,-618.75)">
			<title>Class</title>
			<desc>Employee</desc>
			<g id="shape2-2">
				<title>Sheet.2</title>
				<path d="M0 915.38 L180 915.38 L180 764.62 L0 764.62 L0 915.38 Z" class="st1"/>
			</g>
			<g id="shape3-4" transform="translate(0,-150.758)">
				<title>Sheet.3</title>
				<path d="M0 915.38 L180 915.38 L180 883.88 L0 883.88 L0 915.38 Z" class="st2"/>
			</g>
			<g id="shape5-6" transform="translate(171,-182.258)">
				<title>Sheet.5</title>
				<desc>parameter</desc>
			</g>
			<g id="shape1-7">
				<text x="4" y="752.48" class="st3">Employee</text>			</g>
		</g>
		<g id="shape6-9" transform="translate(20.625,-659.254)">
			<title>Member</title>
			<desc>-EmployeeID -EmployeeName -EmployeeAddress -EmployeeCity -Emp...</desc>
			<rect x="0" y="807.379" width="175.5" height="108.004" class="st4"/>
			<rect x="0" y="807.379" width="175.5" height="108.004" class="st5"/>
			<text x="9" y="816.38" class="st6">-EmployeeID <tspan x="9" dy="1.2em" class="st7">-</tspan>EmployeeName <tspan x="9"
						dy="1.2em" class="st7">-</tspan>EmployeeAddress <tspan x="9" dy="1.2em" class="st7">-</tspan>EmployeeCity <tspan
						x="9" dy="1.2em" class="st7">-</tspan>EmployeeState <tspan x="9" dy="1.2em" class="st7">-</tspan>EmployeeZip <tspan
						x="9" dy="1.2em" class="st7">-</tspan>EmployeePhone <tspan x="9" dy="1.2em" class="st7">-</tspan>EmployeeEmail <tspan
						x="9" dy="1.2em" class="st7">-</tspan>EmployeeRole</text>		</g>
		<g id="shape7-21" transform="translate(20.625,-657.004)">
			<title>Separator</title>
			<path d="M0 914.26 L175.5 914.26 L0 914.26 Z" class="st8"/>
			<path d="M0 914.26 L175.5 914.26" class="st9"/>
		</g>
		<g id="shape8-24" transform="translate(20.625,-621)">
			<title>Member.8</title>
			<desc>+Login() +GenerateBidProposal() +GenerateInvoice()</desc>
			<rect x="0" y="879.379" width="175.5" height="36.0037" class="st4"/>
			<rect x="0" y="879.379" width="175.5" height="36.0037" class="st5"/>
			<text x="9" y="888.38" class="st6">+Login() <tspan x="9" dy="1.2em" class="st7">+</tspan>GenerateBidProposal() <tspan
						x="9" dy="1.2em" class="st7">+</tspan>GenerateInvoice()</text>		</g>
		<g id="group9-30" transform="translate(18.375,-849.004)">
			<title>Class.9</title>
			<desc>Executive</desc>
			<g id="shape10-31">
				<title>Sheet.10</title>
				<path d="M0 915.38 L180 915.38 L180 898.88 L0 898.88 L0 915.38 Z" class="st1"/>
			</g>
			<g id="shape11-33" transform="translate(0,-16.5036)">
				<title>Sheet.11</title>
				<path d="M0 915.38 L180 915.38 L180 883.88 L0 883.88 L0 915.38 Z" class="st2"/>
			</g>
			<g id="shape13-35" transform="translate(171,-48.0036)">
				<title>Sheet.13</title>
				<desc>parameter</desc>
			</g>
			<g id="shape9-36">
				<text x="4" y="886.73" class="st3">Executive</text>			</g>
		</g>
		<g id="shape16-38" transform="translate(20.625,-851.254)">
			<title>Member.16</title>
			<desc>+generateReport()</desc>
			<rect x="0" y="903.379" width="175.5" height="12.0036" class="st4"/>
			<rect x="0" y="903.379" width="175.5" height="12.0036" class="st5"/>
			<text x="9" y="912.38" class="st6">+generateReport()</text>		</g>
		<g id="group17-42" transform="translate(250.125,-688.5)">
			<title>Class.17</title>
			<desc>Technician</desc>
			<g id="shape18-43">
				<title>Sheet.18</title>
				<path d="M0 915.38 L180 915.38 L180 836.63 L0 836.63 L0 915.38 Z" class="st1"/>
			</g>
			<g id="shape19-45" transform="translate(0,-78.7574)">
				<title>Sheet.19</title>
				<path d="M0 915.38 L180 915.38 L180 883.88 L0 883.88 L0 915.38 Z" class="st2"/>
			</g>
			<g id="shape21-47" transform="translate(171,-110.257)">
				<title>Sheet.21</title>
				<desc>parameter</desc>
			</g>
			<g id="shape17-48">
				<text x="4" y="824.48" class="st3">Technician</text>			</g>
		</g>
		<g id="shape22-50" transform="translate(252.375,-741.004)">
			<title>Member.22</title>
			<desc>-employeeID -skillSet</desc>
			<rect x="0" y="891.379" width="175.5" height="24.0037" class="st4"/>
			<rect x="0" y="891.379" width="175.5" height="24.0037" class="st5"/>
			<text x="9" y="900.38" class="st6">-employeeID <tspan x="9" dy="1.2em" class="st7">-</tspan>skillSet</text>		</g>
		<g id="shape23-55" transform="translate(252.375,-738.754)">
			<title>Separator.23</title>
			<path d="M0 914.26 L175.5 914.26 L0 914.26 Z" class="st8"/>
			<path d="M0 914.26 L175.5 914.26" class="st9"/>
		</g>
		<g id="shape24-58" transform="translate(252.375,-690.75)">
			<title>Member.24</title>
			<desc>+maintainConsulatations() +maintainInstallations() +evaluateC...</desc>
			<rect x="0" y="867.379" width="175.5" height="48.0037" class="st4"/>
			<rect x="0" y="867.379" width="175.5" height="48.0037" class="st5"/>
			<text x="9" y="876.38" class="st6">+maintainConsulatations() <tspan x="9" dy="1.2em" class="st7">+</tspan>maintainInstallations() <tspan
						x="9" dy="1.2em" class="st7">+</tspan>evaluateContractor() <tspan x="9" dy="1.2em" class="st7">+</tspan>noteEquipment()</text>		</g>
		<g id="group25-65" transform="translate(250.125,-544.5)">
			<title>Class.25</title>
			<desc>Office Manager</desc>
			<g id="shape26-66">
				<title>Sheet.26</title>
				<path d="M0 915.38 L180 915.38 L180 824.63 L0 824.63 L0 915.38 Z" class="st1"/>
			</g>
			<g id="shape27-68" transform="translate(0,-90.7575)">
				<title>Sheet.27</title>
				<path d="M0 915.38 L180 915.38 L180 883.88 L0 883.88 L0 915.38 Z" class="st2"/>
			</g>
			<g id="shape29-70" transform="translate(171,-122.257)">
				<title>Sheet.29</title>
				<desc>parameter</desc>
			</g>
			<g id="shape25-71">
				<text x="4" y="812.48" class="st3">Office Manager</text>			</g>
		</g>
		<g id="shape30-73" transform="translate(252.375,-621.004)">
			<title>Member.30</title>
			<desc>-employeeID</desc>
			<rect x="0" y="903.379" width="175.5" height="12.0036" class="st4"/>
			<rect x="0" y="903.379" width="175.5" height="12.0036" class="st5"/>
			<text x="9" y="912.38" class="st6">-employeeID</text>		</g>
		<g id="shape31-77" transform="translate(252.375,-618.754)">
			<title>Separator.31</title>
			<path d="M0 914.26 L175.5 914.26 L0 914.26 Z" class="st8"/>
			<path d="M0 914.26 L175.5 914.26" class="st9"/>
		</g>
		<g id="shape32-80" transform="translate(252.375,-546.75)">
			<title>Member.32</title>
			<desc>+maintainCustomers() +maintainEmployees() +maintainContractor...</desc>
			<rect x="0" y="843.379" width="175.5" height="72.0038" class="st4"/>
			<rect x="0" y="843.379" width="175.5" height="72.0038" class="st5"/>
			<text x="9" y="852.38" class="st6">+maintainCustomers()<tspan x="9" dy="1.2em" class="st7">+</tspan>maintainEmployees() <tspan
						x="9" dy="1.2em" class="st7">+</tspan>maintainContractors() <tspan x="9" dy="1.2em" class="st7">+</tspan>viewEmployeeSchedule()<tspan
						x="9" dy="1.2em" class="st7">+</tspan>viewEquipmentRented() <tspan x="9" dy="1.2em" class="st7">+</tspan>viewRentalHistory()</text>		</g>
		<g id="group53-89" transform="translate(18.375,-428.246)">
			<title>Class.53</title>
			<desc>Contractor</desc>
			<g id="shape54-90">
				<title>Sheet.54</title>
				<path d="M0 915.38 L180 915.38 L180 776.63 L0 776.63 L0 915.38 Z" class="st1"/>
			</g>
			<g id="shape55-92" transform="translate(0,-138.754)">
				<title>Sheet.55</title>
				<path d="M0 915.38 L180 915.38 L180 883.88 L0 883.88 L0 915.38 Z" class="st2"/>
			</g>
			<g id="shape57-94" transform="translate(171,-170.254)">
				<title>Sheet.57</title>
				<desc>parameter</desc>
			</g>
			<g id="shape53-95">
				<text x="4" y="764.48" class="st3">Contractor</text>			</g>
		</g>
		<g id="shape58-97" transform="translate(20.625,-444.746)">
			<title>Member.58</title>
			<desc>-contractorID -contractorName -contractorAddress -contractorS...</desc>
			<rect x="0" y="795.379" width="175.5" height="120.004" class="st4"/>
			<rect x="0" y="795.379" width="175.5" height="120.004" class="st5"/>
			<text x="9" y="804.38" class="st6">-contractorID <tspan x="9" dy="1.2em" class="st7">-</tspan>contractorName <tspan
						x="9" dy="1.2em" class="st7">-</tspan>contractorAddress <tspan x="9" dy="1.2em" class="st7">-</tspan>contractorState <tspan
						x="9" dy="1.2em" class="st7">-</tspan>contractorZip <tspan x="9" dy="1.2em" class="st7">-</tspan>contractorPhone <tspan
						x="9" dy="1.2em" class="st7">-</tspan>contractorEmail <tspan x="9" dy="1.2em" class="st7">-</tspan>contractorSkills <tspan
						x="9" dy="1.2em" class="st7">-</tspan>contractorOrginization <tspan x="9" dy="1.2em" class="st7">-</tspan>contractorComments</text>		</g>
		<g id="shape59-110" transform="translate(20.625,-442.496)">
			<title>Separator.59</title>
			<path d="M0 914.26 L175.5 914.26 L0 914.26 Z" class="st8"/>
			<path d="M0 914.26 L175.5 914.26" class="st9"/>
		</g>
		<g id="shape60-113" transform="translate(20.625,-430.496)">
			<title>Member.60</title>
			<rect x="0" y="903.383" width="175.5" height="12" class="st4"/>
			<rect x="0" y="903.383" width="175.5" height="12" class="st5"/>
		</g>
		<g id="group66-116" transform="translate(250.125,-743.629)">
			<title>Inheritance.66</title>
			<g id="shape66-117">
				<path d="M0 915.38 L-35.95 915.38 L-35.95 949.13 L-41.94 949.13" class="st10"/>
			</g>
		</g>
		<g id="group71-123" transform="translate(214.125,-709.879)">
			<title>Association</title>
			<g id="shape71-124">
				<path d="M0 915.38 L0 1019.63 L36 1019.63" class="st12"/>
			</g>
		</g>
		<g id="group77-127" transform="translate(18.375,-201.006)">
			<title>Class.77</title>
			<desc>Customer</desc>
			<g id="shape78-128">
				<title>Sheet.78</title>
				<path d="M0 915.38 L180 915.38 L180 752.62 L0 752.62 L0 915.38 Z" class="st1"/>
			</g>
			<g id="shape79-130" transform="translate(0,-162.758)">
				<title>Sheet.79</title>
				<path d="M0 915.38 L180 915.38 L180 883.88 L0 883.88 L0 915.38 Z" class="st2"/>
			</g>
			<g id="shape81-132" transform="translate(171,-194.258)">
				<title>Sheet.81</title>
				<desc>parameter</desc>
			</g>
			<g id="shape77-133">
				<text x="4" y="740.48" class="st3">Customer</text>			</g>
		</g>
		<g id="shape82-135" transform="translate(20.625,-253.509)">
			<title>Member.82</title>
			<desc>-customerID -customerName -customerAddress -customerCity -cus...</desc>
			<rect x="0" y="807.379" width="175.5" height="108.004" class="st4"/>
			<rect x="0" y="807.379" width="175.5" height="108.004" class="st5"/>
			<text x="9" y="816.38" class="st6">-customerID <tspan x="9" dy="1.2em" class="st7">-</tspan>customerName <tspan x="9"
						dy="1.2em" class="st7">-</tspan>customerAddress <tspan x="9" dy="1.2em" class="st7">-</tspan>customerCity <tspan
						x="9" dy="1.2em" class="st7">-</tspan>customerState <tspan x="9" dy="1.2em" class="st7">-</tspan>customerZip <tspan
						x="9" dy="1.2em" class="st7">-</tspan>customerPhone <tspan x="9" dy="1.2em" class="st7">-</tspan>customerEmail <tspan
						x="9" dy="1.2em" class="st7">-</tspan>customerCompanyName</text>		</g>
		<g id="shape83-147" transform="translate(20.625,-251.259)">
			<title>Separator.83</title>
			<path d="M0 914.26 L175.5 914.26 L0 914.26 Z" class="st8"/>
			<path d="M0 914.26 L175.5 914.26" class="st9"/>
		</g>
		<g id="shape84-150" transform="translate(20.625,-203.256)">
			<title>Member.84</title>
			<desc>+requestConsultation() +requestInstallation() +rentEquipment(...</desc>
			<rect x="0" y="867.379" width="175.5" height="48.0037" class="st4"/>
			<rect x="0" y="867.379" width="175.5" height="48.0037" class="st5"/>
			<text x="9" y="876.38" class="st6">+requestConsultation() <tspan x="9" dy="1.2em" class="st7">+</tspan>requestInstallation() <tspan
						x="9" dy="1.2em" class="st7">+</tspan>rentEquipment() <tspan x="9" dy="1.2em" class="st7">+</tspan>buyEquipment()</text>		</g>
		<g id="group85-157" transform="translate(448.125,-18.375)">
			<title>Class.85</title>
			<desc>Equipment</desc>
			<g id="shape86-158">
				<title>Sheet.86</title>
				<path d="M0 915.38 L180 915.38 L180 812.63 L0 812.63 L0 915.38 Z" class="st1"/>
			</g>
			<g id="shape87-160" transform="translate(0,-102.754)">
				<title>Sheet.87</title>
				<path d="M0 915.38 L180 915.38 L180 883.88 L0 883.88 L0 915.38 Z" class="st2"/>
			</g>
			<g id="shape89-162" transform="translate(171,-134.254)">
				<title>Sheet.89</title>
				<desc>parameter</desc>
			</g>
			<g id="shape85-163">
				<text x="4" y="800.48" class="st3">Equipment</text>			</g>
		</g>
		<g id="shape90-165" transform="translate(450.375,-34.875)">
			<title>Member.90</title>
			<desc>-equipmentID -equipmentType -equipmentRentalCost -equipmentBu...</desc>
			<rect x="0" y="831.379" width="175.5" height="84.0039" class="st4"/>
			<rect x="0" y="831.379" width="175.5" height="84.0039" class="st5"/>
			<text x="9" y="840.38" class="st6">-equipmentID <tspan x="9" dy="1.2em" class="st7">-</tspan>equipmentType <tspan x="9"
						dy="1.2em" class="st7">-</tspan>equipmentRentalCost <tspan x="9" dy="1.2em" class="st7">-</tspan>equipmentBuyCost <tspan
						x="9" dy="1.2em" class="st7">-</tspan>equipmentMaitenanceDate <tspan x="9" dy="1.2em" class="st7">-</tspan>equipmentCondition <tspan
						x="9" dy="1.2em" class="st7">-</tspan>equipmentComments</text>		</g>
		<g id="shape91-175" transform="translate(450.375,-32.625)">
			<title>Separator.91</title>
			<path d="M0 914.26 L175.5 914.26 L0 914.26 Z" class="st8"/>
			<path d="M0 914.26 L175.5 914.26" class="st9"/>
		</g>
		<g id="shape92-178" transform="translate(450.375,-20.625)">
			<title>Member.92</title>
			<rect x="0" y="903.383" width="175.5" height="12" class="st4"/>
			<rect x="0" y="903.383" width="175.5" height="12" class="st5"/>
		</g>
		<g id="group101-181" transform="translate(288.375,-314.239)">
			<title>Class.101</title>
			<desc>Invoice</desc>
			<g id="shape102-182">
				<title>Sheet.102</title>
				<path d="M0 915.38 L180 915.38 L180 836.63 L0 836.63 L0 915.38 Z" class="st1"/>
			</g>
			<g id="shape103-184" transform="translate(0,-78.7538)">
				<title>Sheet.103</title>
				<path d="M0 915.38 L180 915.38 L180 883.88 L0 883.88 L0 915.38 Z" class="st2"/>
			</g>
			<g id="shape105-186" transform="translate(171,-110.254)">
				<title>Sheet.105</title>
				<desc>parameter</desc>
			</g>
			<g id="shape101-187">
				<text x="4" y="824.48" class="st3">Invoice</text>			</g>
		</g>
		<g id="shape106-189" transform="translate(290.625,-330.739)">
			<title>Member.106</title>
			<desc>-invoiceID -paymentMethod -invoiceDate -paymentDate -paymentM...</desc>
			<rect x="0" y="855.379" width="175.5" height="60.0038" class="st4"/>
			<rect x="0" y="855.379" width="175.5" height="60.0038" class="st5"/>
			<text x="9" y="864.38" class="st6">-invoiceID <tspan x="9" dy="1.2em" class="st7">-</tspan>paymentMethod <tspan x="9"
						dy="1.2em" class="st7">-</tspan>invoiceDate <tspan x="9" dy="1.2em" class="st7">-</tspan>paymentDate <tspan
						x="9" dy="1.2em" class="st7">-</tspan>paymentMethod</text>		</g>
		<g id="shape107-197" transform="translate(290.625,-328.489)">
			<title>Separator.107</title>
			<path d="M0 914.26 L175.5 914.26 L0 914.26 Z" class="st8"/>
			<path d="M0 914.26 L175.5 914.26" class="st9"/>
		</g>
		<g id="shape108-200" transform="translate(290.625,-316.489)">
			<title>Member.108</title>
			<rect x="0" y="903.383" width="175.5" height="12" class="st4"/>
			<rect x="0" y="903.383" width="175.5" height="12" class="st5"/>
		</g>
		<g id="group124-203" transform="translate(558.375,-678.752)">
			<title>Class.124</title>
			<desc>Installation</desc>
			<g id="shape125-204">
				<title>Sheet.125</title>
				<path d="M0 915.38 L180 915.38 L180 824.63 L0 824.63 L0 915.38 Z" class="st1"/>
			</g>
			<g id="shape126-206" transform="translate(0,-90.7538)">
				<title>Sheet.126</title>
				<path d="M0 915.38 L180 915.38 L180 883.88 L0 883.88 L0 915.38 Z" class="st2"/>
			</g>
			<g id="shape128-208" transform="translate(171,-122.254)">
				<title>Sheet.128</title>
				<desc>parameter</desc>
			</g>
			<g id="shape124-209">
				<text x="4" y="812.48" class="st3">Installation</text>			</g>
		</g>
		<g id="shape129-211" transform="translate(560.625,-695.252)">
			<title>Member.129</title>
			<desc>-installationID -employeeID -installationStartDate -installat...</desc>
			<rect x="0" y="843.379" width="175.5" height="72.0038" class="st4"/>
			<rect x="0" y="843.379" width="175.5" height="72.0038" class="st5"/>
			<text x="9" y="852.38" class="st6">-installationID <tspan x="9" dy="1.2em" class="st7">-</tspan>employeeID <tspan x="9"
						dy="1.2em" class="st7">-</tspan>installationStartDate <tspan x="9" dy="1.2em" class="st7">-</tspan>installationEndDate <tspan
						x="9" dy="1.2em" class="st7">installationCost </tspan><tspan x="9" dy="1.2em" class="st7">-</tspan>installationComments</text>		</g>
		<g id="shape130-220" transform="translate(560.625,-693.002)">
			<title>Separator.130</title>
			<path d="M0 914.26 L175.5 914.26 L0 914.26 Z" class="st8"/>
			<path d="M0 914.26 L175.5 914.26" class="st9"/>
		</g>
		<g id="shape131-223" transform="translate(560.625,-681.002)">
			<title>Member.131</title>
			<rect x="0" y="903.383" width="175.5" height="12" class="st4"/>
			<rect x="0" y="903.383" width="175.5" height="12" class="st5"/>
		</g>
		<g id="group132-226" transform="translate(18.375,-30.3732)">
			<title>Class.132</title>
			<desc>Rental</desc>
			<g id="shape133-227">
				<title>Sheet.133</title>
				<path d="M0 915.38 L180 915.38 L180 836.63 L0 836.63 L0 915.38 Z" class="st1"/>
			</g>
			<g id="shape134-229" transform="translate(0,-78.7574)">
				<title>Sheet.134</title>
				<path d="M0 915.38 L180 915.38 L180 883.88 L0 883.88 L0 915.38 Z" class="st2"/>
			</g>
			<g id="shape136-231" transform="translate(171,-110.257)">
				<title>Sheet.136</title>
				<desc>parameter</desc>
			</g>
			<g id="shape132-232">
				<text x="4" y="824.48" class="st3">Rental</text>			</g>
		</g>
		<g id="shape137-234" transform="translate(20.625,-46.8769)">
			<title>Member.137</title>
			<desc>-rentalID -rentalCost -rentalStartDate -rentalEndDate -comments</desc>
			<rect x="0" y="855.379" width="175.5" height="60.0038" class="st4"/>
			<rect x="0" y="855.379" width="175.5" height="60.0038" class="st5"/>
			<text x="9" y="864.38" class="st6">-rentalID <tspan x="9" dy="1.2em" class="st7">-</tspan>rentalCost <tspan x="9"
						dy="1.2em" class="st7">-</tspan>rentalStartDate <tspan x="9" dy="1.2em" class="st7">-</tspan>rentalEndDate <tspan
						x="9" dy="1.2em" class="st7">-</tspan>comments</text>		</g>
		<g id="shape138-242" transform="translate(20.625,-44.6269)">
			<title>Separator.138</title>
			<path d="M0 914.26 L175.5 914.26 L0 914.26 Z" class="st8"/>
			<path d="M0 914.26 L175.5 914.26" class="st9"/>
		</g>
		<g id="shape139-245" transform="translate(20.625,-32.6232)">
			<title>Member.139</title>
			<desc>-memberName</desc>
			<rect x="0" y="903.379" width="175.5" height="12.0036" class="st4"/>
			<rect x="0" y="903.379" width="175.5" height="12.0036" class="st5"/>
			<text x="9" y="912.38" class="st6">-memberName</text>		</g>
		<g id="group150-249" transform="translate(198.375,-298.135)">
			<title>Association.150</title>
			<desc>Recieves</desc>
			<g id="shape152-250" transform="translate(7.50964,14.6947)">
				<title>Sheet.152</title>
				<desc>0..*</desc>
				<rect x="0.906097" y="905.781" width="12.0784" height="9.59985" class="st13"/>
				<text x="0.91" y="912.98" class="st14">0..*</text>			</g>
			<g id="shape154-253" transform="translate(76.6234,-56.5367)">
				<title>Sheet.154</title>
				<desc>1</desc>
				<rect x="0.906097" y="905.781" width="4.05478" height="9.59985" class="st13"/>
				<text x="0.91" y="912.98" class="st14">1</text>			</g>
			<g id="shape150-256">
				<path d="M0 915.38 L41.62 915.38 L41.62 844.15 L90 844.15" class="st12"/>
				<rect x="23.971" y="870.392" width="35.3081" height="12.0001" class="st13"/>
				<text x="23.97" y="879.39" class="st6">Recieves</text>			</g>
		</g>
		<g id="group165-261" transform="translate(430.125,-750.754)">
			<title>Association.165</title>
			<desc>Performs</desc>
			<g id="shape166-262" transform="translate(7.07117,2.03385)">
				<title>Sheet.166</title>
				<desc>0..*</desc>
				<rect x="0.906097" y="905.781" width="12.0784" height="9.59985" class="st13"/>
				<text x="0.91" y="912.98" class="st14">0..*</text>			</g>
			<g id="shape168-265" transform="translate(133.341,3.80381)">
				<title>Sheet.168</title>
				<desc>1</desc>
				<rect x="0.906097" y="905.781" width="4.05478" height="9.59985" class="st13"/>
				<text x="0.91" y="912.98" class="st14">1</text>			</g>
			<g id="shape165-268">
				<path d="M0 922.51 L128.25 922.51 L128.25 926.26" class="st12"/>
				<rect x="47.3306" y="916.508" width="37.339" height="12.0001" class="st13"/>
				<text x="47.33" y="925.51" class="st6">Performs</text>			</g>
		</g>
		<g id="group170-273" transform="translate(522.375,-509.997)">
			<title>Class.170</title>
			<desc>Consultation</desc>
			<g id="shape171-274">
				<title>Sheet.171</title>
				<path d="M0 915.38 L180 915.38 L180 836.63 L0 836.63 L0 915.38 Z" class="st1"/>
			</g>
			<g id="shape172-276" transform="translate(0,-78.7538)">
				<title>Sheet.172</title>
				<path d="M0 915.38 L180 915.38 L180 883.88 L0 883.88 L0 915.38 Z" class="st2"/>
			</g>
			<g id="shape174-278" transform="translate(171,-110.254)">
				<title>Sheet.174</title>
				<desc>parameter</desc>
			</g>
			<g id="shape170-279">
				<text x="4" y="824.48" class="st3">Consultation</text>			</g>
		</g>
		<g id="shape175-281" transform="translate(524.625,-526.497)">
			<title>Member.175</title>
			<desc>-consultationID -employeeID -consultationDate -consultationCo...</desc>
			<rect x="0" y="855.379" width="175.5" height="60.0038" class="st4"/>
			<rect x="0" y="855.379" width="175.5" height="60.0038" class="st5"/>
			<text x="9" y="864.38" class="st6">-consultationID <tspan x="9" dy="1.2em" class="st7">-</tspan>employeeID <tspan x="9"
						dy="1.2em" class="st7">-</tspan>consultationDate <tspan x="9" dy="1.2em" class="st7">-</tspan>consultationCost <tspan
						x="9" dy="1.2em" class="st7">-</tspan>consultationComments</text>		</g>
		<g id="shape176-289" transform="translate(524.625,-524.247)">
			<title>Separator.176</title>
			<path d="M0 914.26 L175.5 914.26 L0 914.26 Z" class="st8"/>
			<path d="M0 914.26 L175.5 914.26" class="st9"/>
		</g>
		<g id="shape177-292" transform="translate(524.625,-512.247)">
			<title>Member.177</title>
			<rect x="0" y="903.383" width="175.5" height="12" class="st4"/>
			<rect x="0" y="903.383" width="175.5" height="12" class="st5"/>
		</g>
		<g id="group178-295" transform="translate(430.523,-707.836)">
			<title>Association.178</title>
			<desc>Informs</desc>
			<g id="shape179-296" transform="translate(8.60963,-5.09117)">
				<title>Sheet.179</title>
				<desc>0..*</desc>
				<rect x="0.906097" y="905.781" width="12.0784" height="9.59985" class="st13"/>
				<text x="0.91" y="912.98" class="st14">0..*</text>			</g>
			<g id="shape181-299" transform="translate(77.3749,137.621)">
				<title>Sheet.181</title>
				<desc>1</desc>
				<rect x="0.906097" y="905.781" width="4.05478" height="9.59985" class="st13"/>
				<text x="0.91" y="912.98" class="st14">1</text>			</g>
			<g id="shape178-302">
				<path d="M0 915.38 L27.73 915.38 L27.73 1058.09 L91.85 1058.09" class="st12"/>
				<rect x="11.9845" y="998.938" width="31.4843" height="12.0001" class="st13"/>
				<text x="11.98" y="1007.94" class="st6">Informs</text>			</g>
		</g>
		<g id="group183-307" transform="translate(198.375,-513.373)">
			<title>Association.183</title>
			<desc>Hires</desc>
			<g id="shape184-308" transform="translate(7.17666,-5.09117)">
				<title>Sheet.184</title>
				<desc>1</desc>
				<rect x="0.906097" y="905.781" width="4.05478" height="9.59985" class="st13"/>
				<text x="0.91" y="912.98" class="st14">1</text>			</g>
			<g id="shape186-311" transform="translate(89.2057,-14.0652)">
				<title>Sheet.186</title>
				<desc>0..*</desc>
				<rect x="0.906097" y="905.781" width="12.0784" height="9.59985" class="st13"/>
				<text x="0.91" y="912.98" class="st14">0..*</text>			</g>
			<g id="shape183-314">
				<path d="M0 915.38 L108.19 915.38 L108.19 884.54" class="st12"/>
				<rect x="59.067" y="909.383" width="20.8987" height="12.0001" class="st13"/>
				<text x="59.07" y="918.38" class="st6">Hires</text>			</g>
		</g>
		<g id="group188-319" transform="translate(198.375,-76.5019)">
			<title>Association.188</title>
			<desc>Rents</desc>
			<g id="shape190-320" transform="translate(8.83742,5.69473)">
				<title>Sheet.190</title>
				<desc>0..*</desc>
				<rect x="0.906097" y="905.781" width="12.0784" height="9.59985" class="st13"/>
				<text x="0.91" y="912.98" class="st14">0..*</text>			</g>
			<g id="shape192-323" transform="translate(235.046,5.69473)">
				<title>Sheet.192</title>
				<desc>1</desc>
				<rect x="0.906097" y="905.781" width="4.05478" height="9.59985" class="st13"/>
				<text x="0.91" y="912.98" class="st14">1</text>			</g>
			<g id="shape188-326">
				<path d="M0 906.38 L249.75 906.38" class="st12"/>
				<rect x="113.415" y="900.383" width="22.9202" height="12.0001" class="st13"/>
				<text x="113.41" y="909.38" class="st6">Rents</text>			</g>
		</g>
		<g id="group193-331" transform="translate(349.031,-543.937)">
			<title>Association.193</title>
			<desc>Sends</desc>
			<g id="shape194-332" transform="translate(13.8423,16.4637)">
				<title>Sheet.194</title>
				<desc>1</desc>
				<rect x="0.906097" y="905.781" width="4.05478" height="9.59985" class="st13"/>
				<text x="0.91" y="912.98" class="st14">1</text>			</g>
			<g id="shape196-335" transform="translate(14.34,112.623)">
				<title>Sheet.196</title>
				<desc>1</desc>
				<rect x="0.906097" y="905.781" width="4.05478" height="9.59985" class="st13"/>
				<text x="0.91" y="912.98" class="st14">1</text>			</g>
			<g id="shape193-338">
				<path d="M8.72 915.38 L9.28 1034.91" class="st12"/>
				<rect x="-2.99466" y="969.148" width="23.9895" height="12.0001" class="st13"/>
				<text x="-2.99" y="978.15" class="st6">Sends</text>			</g>
		</g>
		<g id="group198-343" transform="translate(99.375,-201.006)">
			<title>Association.198</title>
			<desc>Rents</desc>
			<g id="shape200-344" transform="translate(-10.0521,15.6004)">
				<title>Sheet.200</title>
				<desc>0..1</desc>
				<rect x="0.906097" y="905.781" width="12.1487" height="9.59985" class="st13"/>
				<text x="0.91" y="912.98" class="st14">0..1</text>			</g>
			<g id="shape202-347" transform="translate(-1.95817,54.3782)">
				<title>Sheet.202</title>
				<desc>1</desc>
				<rect x="0.906097" y="905.781" width="4.05478" height="9.59985" class="st13"/>
				<text x="0.91" y="912.98" class="st14">1</text>			</g>
			<g id="shape198-350">
				<path d="M9 915.38 L9 975.76" class="st12"/>
				<rect x="-2.46017" y="939.57" width="22.9202" height="12.0001" class="st13"/>
				<text x="-2.46" y="948.57" class="st6">Rents</text>			</g>
		</g>
		<g id="group203-355" transform="translate(99.375,-849.004)">
			<title>Inheritance</title>
			<g id="shape203-356">
				<path d="M9 915.38 L9 953.57" class="st10"/>
			</g>
		</g>
	</g>
</svg>
