<?xml version="1.0" encoding="UTF-8" standalone="no"?>
<!DOCTYPE svg PUBLIC "-//W3C//DTD SVG 1.1//EN" "http://www.w3.org/Graphics/SVG/1.1/DTD/svg11.dtd">
<!-- Generated by Microsoft Visio, SVG Export 2017-05-19 - Final Project Class Diagram.svg Page-1 -->
<svg xmlns="http://www.w3.org/2000/svg" xmlns:xlink="http://www.w3.org/1999/xlink" xmlns:ev="http://www.w3.org/2001/xml-events"
		width="6.88542in" height="8.23986in" viewBox="0 0 495.75 593.27" xml:space="preserve" color-interpolation-filters="sRGB"
		class="st12">
	<style type="text/css">
	<![CDATA[
		.st1 {fill:#f2f2f2;stroke:#000000;stroke-linecap:round;stroke-linejoin:round;stroke-width:0.75}
		.st2 {fill:#ffffff;stroke:#000000;stroke-linecap:round;stroke-linejoin:round;stroke-width:0.75}
		.st3 {fill:#000000;font-family:Calibri;font-size:1.00001em}
		.st4 {fill:#ffffff;fill-opacity:0}
		.st5 {stroke:#000000;stroke-linecap:round;stroke-linejoin:round;stroke-width:0.75;visibility:hidden}
		.st6 {fill:#000000;font-family:Calibri;font-size:0.833336em}
		.st7 {marker-end:url(#mrkr14-71);stroke:#000000;stroke-linecap:round;stroke-linejoin:round;stroke-width:0.237638}
		.st8 {fill:#000000;fill-opacity:1;stroke:#000000;stroke-opacity:1;stroke-width:0.086174404659928}
		.st9 {fill:#ffffff;stroke:none;stroke-linecap:butt;stroke-width:7.2}
		.st10 {fill:#000000;font-family:Calibri;font-size:0.666664em}
		.st11 {stroke:#000000;stroke-linecap:round;stroke-linejoin:round;stroke-width:0.237638}
		.st12 {fill:none;fill-rule:evenodd;font-size:12px;overflow:visible;stroke-linecap:square;stroke-miterlimit:3}
	]]>
	</style>

	<defs id="Markers">
		<g id="lend14">
			<path d="M 3 -1 L 0 0 L 3 1 L 3 -1 " style="stroke-linecap:round;stroke-linejoin:round;fill:none"/>
		</g>
		<marker id="mrkr14-71" class="st8" refX="-34.813121272366" orient="auto" markerUnits="strokeWidth" overflow="visible">
			<use xlink:href="#lend14" transform="scale(-11.604373757455,-11.604373757455) "/>
		</marker>
	</defs>
	<g>
		<title>Page-1</title>
		<g id="group1-1" transform="translate(18.375,-490.88)">
			<title>Class</title>
			<desc>Employee</desc>
			<g id="shape2-2">
				<title>Sheet.2</title>
				<path d="M0 593.27 L180 593.27 L180 540.76 L0 540.76 L0 593.27 Z" class="st1"/>
			</g>
			<g id="shape3-4" transform="translate(0,-52.5145)">
				<title>Sheet.3</title>
				<path d="M0 593.27 L180 593.27 L180 561.77 L0 561.77 L0 593.27 Z" class="st2"/>
			</g>
			<g id="shape5-6" transform="translate(171,-84.0145)">
				<title>Sheet.5</title>
				<desc>parameter</desc>
			</g>
			<g id="shape1-7">
				<text x="4" y="528.61" class="st3">Employee</text>			</g>
		</g>
		<g id="shape6-9" transform="translate(20.625,-529.141)">
			<title>Member</title>
			<desc>-username</desc>
			<rect x="0" y="581.266" width="175.5" height="12.0036" class="st4"/>
			<rect x="0" y="581.266" width="175.5" height="12.0036" class="st5"/>
			<text x="9" y="590.27" class="st6">-username</text>		</g>
		<g id="shape9-13" transform="translate(20.625,-517.138)">
			<title>Member.9</title>
			<desc>-password</desc>
			<rect x="0" y="581.266" width="175.5" height="12.0036" class="st4"/>
			<rect x="0" y="581.266" width="175.5" height="12.0036" class="st5"/>
			<text x="9" y="590.27" class="st6">-password</text>		</g>
		<g id="shape10-17" transform="translate(20.625,-505.134)">
			<title>Member.10</title>
			<desc>-contactPhone</desc>
			<rect x="0" y="581.266" width="175.5" height="12.0036" class="st4"/>
			<rect x="0" y="581.266" width="175.5" height="12.0036" class="st5"/>
			<text x="9" y="590.27" class="st6">-contactPhone</text>		</g>
		<g id="shape11-21" transform="translate(20.625,-493.13)">
			<title>Member.11</title>
			<desc>-contactEmail</desc>
			<rect x="0" y="581.266" width="175.5" height="12.0036" class="st4"/>
			<rect x="0" y="581.266" width="175.5" height="12.0036" class="st5"/>
			<text x="9" y="590.27" class="st6">-contactEmail</text>		</g>
		<g id="group12-25" transform="translate(297.375,-535.88)">
			<title>Class.12</title>
			<desc>Technician</desc>
			<g id="shape13-26">
				<title>Sheet.13</title>
				<path d="M0 593.27 L180 593.27 L180 586.52 L0 586.52 L0 593.27 Z" class="st1"/>
			</g>
			<g id="shape14-28" transform="translate(0,-6.75)">
				<title>Sheet.14</title>
				<path d="M0 593.27 L180 593.27 L180 561.77 L0 561.77 L0 593.27 Z" class="st2"/>
			</g>
			<g id="shape16-30" transform="translate(171,-38.25)">
				<title>Sheet.16</title>
				<desc>parameter</desc>
			</g>
			<g id="shape12-31">
				<text x="4" y="574.37" class="st3">Technician</text>			</g>
		</g>
		<g id="group28-33" transform="translate(297.375,-490.88)">
			<title>Class.28</title>
			<desc>Office Manager</desc>
			<g id="shape29-34">
				<title>Sheet.29</title>
				<path d="M0 593.27 L180 593.27 L180 586.52 L0 586.52 L0 593.27 Z" class="st1"/>
			</g>
			<g id="shape30-36" transform="translate(0,-6.75)">
				<title>Sheet.30</title>
				<path d="M0 593.27 L180 593.27 L180 561.77 L0 561.77 L0 593.27 Z" class="st2"/>
			</g>
			<g id="shape32-38" transform="translate(171,-38.25)">
				<title>Sheet.32</title>
				<desc>parameter</desc>
			</g>
			<g id="shape28-39">
				<text x="4" y="574.37" class="st3">Office Manager</text>			</g>
		</g>
		<g id="group36-41" transform="translate(297.375,-445.88)">
			<title>Class.36</title>
			<desc>Vice President</desc>
			<g id="shape37-42">
				<title>Sheet.37</title>
				<path d="M0 593.27 L180 593.27 L180 586.52 L0 586.52 L0 593.27 Z" class="st1"/>
			</g>
			<g id="shape38-44" transform="translate(0,-6.75)">
				<title>Sheet.38</title>
				<path d="M0 593.27 L180 593.27 L180 561.77 L0 561.77 L0 593.27 Z" class="st2"/>
			</g>
			<g id="shape40-46" transform="translate(171,-38.25)">
				<title>Sheet.40</title>
				<desc>parameter</desc>
			</g>
			<g id="shape36-47">
				<text x="4" y="574.37" class="st3">Vice President</text>			</g>
		</g>
		<g id="group44-49" transform="translate(297.375,-400.88)">
			<title>Class.44</title>
			<desc>President</desc>
			<g id="shape45-50">
				<title>Sheet.45</title>
				<path d="M0 593.27 L180 593.27 L180 586.52 L0 586.52 L0 593.27 Z" class="st1"/>
			</g>
			<g id="shape46-52" transform="translate(0,-6.75)">
				<title>Sheet.46</title>
				<path d="M0 593.27 L180 593.27 L180 561.77 L0 561.77 L0 593.27 Z" class="st2"/>
			</g>
			<g id="shape48-54" transform="translate(171,-38.25)">
				<title>Sheet.48</title>
				<desc>parameter</desc>
			</g>
			<g id="shape44-55">
				<text x="4" y="574.37" class="st3">President</text>			</g>
		</g>
		<g id="group52-57" transform="translate(297.375,-355.88)">
			<title>Class.52</title>
			<desc>Contractor</desc>
			<g id="shape53-58">
				<title>Sheet.53</title>
				<path d="M0 593.27 L180 593.27 L180 586.52 L0 586.52 L0 593.27 Z" class="st1"/>
			</g>
			<g id="shape54-60" transform="translate(0,-6.75)">
				<title>Sheet.54</title>
				<path d="M0 593.27 L180 593.27 L180 561.77 L0 561.77 L0 593.27 Z" class="st2"/>
			</g>
			<g id="shape56-62" transform="translate(171,-38.25)">
				<title>Sheet.56</title>
				<desc>parameter</desc>
			</g>
			<g id="shape52-63">
				<text x="4" y="574.37" class="st3">Contractor</text>			</g>
		</g>
		<g id="group60-65" transform="translate(297.375,-555.005)">
			<title>Inheritance</title>
			<g id="shape60-66">
				<path d="M0 593.27 L-36 593.27 L-36 615.39 L-90.73 615.39" class="st7"/>
			</g>
		</g>
		<g id="group70-72" transform="translate(297.375,-510.005)">
			<title>Inheritance.70</title>
			<g id="shape70-73">
				<path d="M0 593.27 L-36 593.27 L-36 570.39 L-90.73 570.39" class="st7"/>
			</g>
		</g>
		<g id="group85-78" transform="translate(297.375,-465.005)">
			<title>Inheritance.85</title>
			<g id="shape85-79">
				<path d="M0 593.27 L-36 593.27 L-36 525.39 L-90.73 525.39" class="st7"/>
			</g>
		</g>
		<g id="group100-84" transform="translate(297.375,-420.005)">
			<title>Inheritance.100</title>
			<g id="shape100-85">
				<path d="M0 593.27 L-36 593.27 L-36 480.39 L-90.73 480.39" class="st7"/>
			</g>
		</g>
		<g id="group105-90" transform="translate(297.375,-375.005)">
			<title>Inheritance.105</title>
			<g id="shape105-91">
				<path d="M0 593.27 L-36 593.27 L-36 435.39 L-90.73 435.39" class="st7"/>
			</g>
		</g>
		<g id="group110-96" transform="translate(18.375,-250.884)">
			<title>Class.110</title>
			<desc>Customer</desc>
			<g id="shape111-97">
				<title>Sheet.111</title>
				<path d="M0 593.27 L180 593.27 L180 552.76 L0 552.76 L0 593.27 Z" class="st1"/>
			</g>
			<g id="shape112-99" transform="translate(0,-40.5109)">
				<title>Sheet.112</title>
				<path d="M0 593.27 L180 593.27 L180 561.77 L0 561.77 L0 593.27 Z" class="st2"/>
			</g>
			<g id="shape114-101" transform="translate(171,-72.0109)">
				<title>Sheet.114</title>
				<desc>parameter</desc>
			</g>
			<g id="shape110-102">
				<text x="4" y="540.61" class="st3">Customer</text>			</g>
		</g>
		<g id="shape115-104" transform="translate(20.625,-277.141)">
			<title>Member.115</title>
			<desc>-name</desc>
			<rect x="0" y="581.266" width="175.5" height="12.0036" class="st4"/>
			<rect x="0" y="581.266" width="175.5" height="12.0036" class="st5"/>
			<text x="9" y="590.27" class="st6">-name</text>		</g>
		<g id="shape118-108" transform="translate(20.625,-265.138)">
			<title>Member.118</title>
			<desc>-contactPhone</desc>
			<rect x="0" y="581.266" width="175.5" height="12.0036" class="st4"/>
			<rect x="0" y="581.266" width="175.5" height="12.0036" class="st5"/>
			<text x="9" y="590.27" class="st6">-contactPhone</text>		</g>
		<g id="shape119-112" transform="translate(20.625,-253.134)">
			<title>Member.119</title>
			<desc>-contactEmail</desc>
			<rect x="0" y="581.266" width="175.5" height="12.0036" class="st4"/>
			<rect x="0" y="581.266" width="175.5" height="12.0036" class="st5"/>
			<text x="9" y="590.27" class="st6">-contactEmail</text>		</g>
		<g id="group120-116" transform="translate(18.375,-18.375)">
			<title>Class.120</title>
			<desc>Equipment</desc>
			<g id="shape121-117">
				<title>Sheet.121</title>
				<path d="M0 593.27 L180 593.27 L180 540.76 L0 540.76 L0 593.27 Z" class="st1"/>
			</g>
			<g id="shape122-119" transform="translate(0,-52.5145)">
				<title>Sheet.122</title>
				<path d="M0 593.27 L180 593.27 L180 561.77 L0 561.77 L0 593.27 Z" class="st2"/>
			</g>
			<g id="shape124-121" transform="translate(171,-84.0145)">
				<title>Sheet.124</title>
				<desc>parameter</desc>
			</g>
			<g id="shape120-122">
				<text x="4" y="528.61" class="st3">Equipment</text>			</g>
		</g>
		<g id="shape125-124" transform="translate(20.625,-56.6359)">
			<title>Member.125</title>
			<desc>-name</desc>
			<rect x="0" y="581.266" width="175.5" height="12.0036" class="st4"/>
			<rect x="0" y="581.266" width="175.5" height="12.0036" class="st5"/>
			<text x="9" y="590.27" class="st6">-name</text>		</g>
		<g id="shape128-128" transform="translate(20.625,-20.625)">
			<title>Member.128</title>
			<desc>-description</desc>
			<rect x="0" y="581.266" width="175.5" height="12.0036" class="st4"/>
			<rect x="0" y="581.266" width="175.5" height="12.0036" class="st5"/>
			<text x="9" y="590.27" class="st6">-description</text>		</g>
		<g id="shape129-132" transform="translate(20.625,-44.6323)">
			<title>Member.129</title>
			<desc>-modelNo</desc>
			<rect x="0" y="581.266" width="175.5" height="12.0036" class="st4"/>
			<rect x="0" y="581.266" width="175.5" height="12.0036" class="st5"/>
			<text x="9" y="590.27" class="st6">-modelNo</text>		</g>
		<g id="shape130-136" transform="translate(20.625,-32.6286)">
			<title>Member.130</title>
			<desc>-serialNo</desc>
			<rect x="0" y="581.266" width="175.5" height="12.0036" class="st4"/>
			<rect x="0" y="581.266" width="175.5" height="12.0036" class="st5"/>
			<text x="9" y="590.27" class="st6">-serialNo</text>		</g>
		<g id="group131-140" transform="translate(18.75,-146.75)">
			<title>Class.131</title>
			<desc>Rental</desc>
			<g id="shape132-141">
				<title>Sheet.132</title>
				<path d="M0 593.27 L180 593.27 L180 564.76 L0 564.76 L0 593.27 Z" class="st1"/>
			</g>
			<g id="shape133-143" transform="translate(0,-28.5073)">
				<title>Sheet.133</title>
				<path d="M0 593.27 L180 593.27 L180 561.77 L0 561.77 L0 593.27 Z" class="st2"/>
			</g>
			<g id="shape135-145" transform="translate(171,-60.0073)">
				<title>Sheet.135</title>
				<desc>parameter</desc>
			</g>
			<g id="shape131-146">
				<text x="4" y="552.61" class="st3">Rental</text>			</g>
		</g>
		<g id="shape136-148" transform="translate(21,-161.004)">
			<title>Member.136</title>
			<desc>-startDate</desc>
			<rect x="0" y="581.266" width="175.5" height="12.0036" class="st4"/>
			<rect x="0" y="581.266" width="175.5" height="12.0036" class="st5"/>
			<text x="9" y="590.27" class="st6">-startDate</text>		</g>
		<g id="shape139-152" transform="translate(21,-149)">
			<title>Member.139</title>
			<desc>-endDate</desc>
			<rect x="0" y="581.266" width="175.5" height="12.0036" class="st4"/>
			<rect x="0" y="581.266" width="175.5" height="12.0036" class="st5"/>
			<text x="9" y="590.27" class="st6">-endDate</text>		</g>
		<g id="group145-156" transform="translate(99.5625,-250.884)">
			<title>Association.145</title>
			<g id="shape146-157" transform="translate(-6.125,13.3894)">
				<title>Sheet.146</title>
				<desc>0..*</desc>
				<rect x="0.906097" y="583.668" width="12.0784" height="9.59985" class="st9"/>
				<text x="0.91" y="590.87" class="st10">0..*</text>			</g>
			<g id="shape149-160" transform="translate(-1.81938,38.4172)">
				<title>Sheet.149</title>
				<desc>1</desc>
				<rect x="0.906097" y="583.668" width="4.05478" height="9.59985" class="st9"/>
				<text x="0.91" y="590.87" class="st10">1</text>			</g>
			<g id="shape145-163">
				<path d="M8.81 593.27 L9.19 637.4" class="st11"/>
			</g>
		</g>
		<g id="group151-166" transform="translate(99.3984,-102.39)">
			<title>Association</title>
			<g id="shape152-167" transform="translate(-8.94844,-4.71045)">
				<title>Sheet.152</title>
				<desc>0..*</desc>
				<rect x="0.906097" y="583.668" width="12.0784" height="9.59985" class="st9"/>
				<text x="0.91" y="590.87" class="st10">0..*</text>			</g>
			<g id="shape154-170" transform="translate(14.0016,-28.5605)">
				<title>Sheet.154</title>
				<desc>0..*</desc>
				<rect x="0.906097" y="583.668" width="12.0784" height="9.59985" class="st9"/>
				<text x="0.91" y="590.87" class="st10">0..*</text>			</g>
			<g id="shape151-173">
				<path d="M8.98 593.27 L9.02 548.91" class="st11"/>
			</g>
		</g>
		<g id="group156-176" transform="translate(297.375,-265.138)">
			<title>Class.156</title>
			<desc>Proposal</desc>
			<g id="shape157-177">
				<title>Sheet.157</title>
				<path d="M0 593.27 L180 593.27 L180 576.77 L0 576.77 L0 593.27 Z" class="st1"/>
			</g>
			<g id="shape158-179" transform="translate(0,-16.5036)">
				<title>Sheet.158</title>
				<path d="M0 593.27 L180 593.27 L180 561.77 L0 561.77 L0 593.27 Z" class="st2"/>
			</g>
			<g id="shape160-181" transform="translate(171,-48.0036)">
				<title>Sheet.160</title>
				<desc>parameter</desc>
			</g>
			<g id="shape156-182">
				<text x="4" y="564.62" class="st3">Proposal</text>			</g>
		</g>
		<g id="shape161-184" transform="translate(299.625,-267.388)">
			<title>Member.161</title>
			<desc>-description</desc>
			<rect x="0" y="581.266" width="175.5" height="12.0036" class="st4"/>
			<rect x="0" y="581.266" width="175.5" height="12.0036" class="st5"/>
			<text x="9" y="590.27" class="st6">-description</text>		</g>
		<g id="group164-188" transform="translate(198.563,-323.645)">
			<title>Association.164</title>
			<g id="shape165-189" transform="translate(5.09117,16.57)">
				<title>Sheet.165</title>
				<desc>0..*</desc>
				<rect x="0.906097" y="583.668" width="12.0784" height="9.59985" class="st9"/>
				<text x="0.91" y="590.87" class="st10">0..*</text>			</g>
			<g id="shape167-192" transform="translate(86.3071,20.7893)">
				<title>Sheet.167</title>
				<desc>1</desc>
				<rect x="0.906097" y="583.668" width="4.05478" height="9.59985" class="st9"/>
				<text x="0.91" y="590.87" class="st10">1</text>			</g>
			<g id="shape164-195">
				<path d="M0 593.27 L0 610.43 L64.12 610.43 L64.12 619.15 L99.14 619.15" class="st11"/>
			</g>
		</g>
		<g id="group169-198" transform="translate(297.375,-171.38)">
			<title>Class.169</title>
			<desc>Order</desc>
			<g id="shape170-199">
				<title>Sheet.170</title>
				<path d="M0 593.27 L180 593.27 L180 576.77 L0 576.77 L0 593.27 Z" class="st1"/>
			</g>
			<g id="shape171-201" transform="translate(0,-16.5036)">
				<title>Sheet.171</title>
				<path d="M0 593.27 L180 593.27 L180 561.77 L0 561.77 L0 593.27 Z" class="st2"/>
			</g>
			<g id="shape173-203" transform="translate(171,-48.0036)">
				<title>Sheet.173</title>
				<desc>parameter</desc>
			</g>
			<g id="shape169-204">
				<text x="4" y="564.62" class="st3">Order</text>			</g>
		</g>
		<g id="shape174-206" transform="translate(299.625,-173.63)">
			<title>Member.174</title>
			<desc>-description</desc>
			<rect x="0" y="581.266" width="175.5" height="12.0036" class="st4"/>
			<rect x="0" y="581.266" width="175.5" height="12.0036" class="st5"/>
			<text x="9" y="590.27" class="st6">-description</text>		</g>
		<g id="group178-210" transform="translate(378.375,-265.138)">
			<title>Association.178</title>
			<g id="shape179-211" transform="translate(14.0912,15.381)">
				<title>Sheet.179</title>
				<desc>1</desc>
				<rect x="0.906097" y="583.668" width="4.05478" height="9.59985" class="st9"/>
				<text x="0.91" y="590.87" class="st10">1</text>			</g>
			<g id="shape181-214" transform="translate(14.0912,39.9762)">
				<title>Sheet.181</title>
				<desc>1</desc>
				<rect x="0.906097" y="583.668" width="4.05478" height="9.59985" class="st9"/>
				<text x="0.91" y="590.87" class="st10">1</text>			</g>
			<g id="shape178-217">
				<path d="M9 593.27 L9 639.02" class="st11"/>
			</g>
		</g>
		<g id="group183-220" transform="translate(198.633,-280.055)">
			<title>Association.183</title>
			<g id="shape184-221" transform="translate(5.64123,-1.58474)">
				<title>Sheet.184</title>
				<desc>0..*</desc>
				<rect x="0.906097" y="583.668" width="12.0784" height="9.59985" class="st9"/>
				<text x="0.91" y="590.87" class="st10">0..*</text>			</g>
			<g id="shape186-224" transform="translate(85.0328,79.5812)">
				<title>Sheet.186</title>
				<desc>1</desc>
				<rect x="0.906097" y="583.668" width="4.05478" height="9.59985" class="st9"/>
				<text x="0.91" y="590.87" class="st10">1</text>			</g>
			<g id="shape183-227">
				<path d="M0 593.27 L64.99 593.27 L64.99 677.94 L98.74 677.94" class="st11"/>
			</g>
		</g>
		<g id="group188-230" transform="translate(297.375,-65.6195)">
			<title>Class.188</title>
			<desc>Invoice</desc>
			<g id="shape189-231">
				<title>Sheet.189</title>
				<path d="M0 593.27 L180 593.27 L180 564.76 L0 564.76 L0 593.27 Z" class="st1"/>
			</g>
			<g id="shape190-233" transform="translate(0,-28.5073)">
				<title>Sheet.190</title>
				<path d="M0 593.27 L180 593.27 L180 561.77 L0 561.77 L0 593.27 Z" class="st2"/>
			</g>
			<g id="shape192-235" transform="translate(171,-60.0073)">
				<title>Sheet.192</title>
				<desc>parameter</desc>
			</g>
			<g id="shape188-236">
				<text x="4" y="552.61" class="st3">Invoice</text>			</g>
		</g>
		<g id="shape193-238" transform="translate(299.625,-79.8732)">
			<title>Member.193</title>
			<desc>-description</desc>
			<rect x="0" y="581.266" width="175.5" height="12.0036" class="st4"/>
			<rect x="0" y="581.266" width="175.5" height="12.0036" class="st5"/>
			<text x="9" y="590.27" class="st6">-description</text>		</g>
		<g id="shape195-242" transform="translate(299.625,-67.8695)">
			<title>Member.195</title>
			<desc>-amount</desc>
			<rect x="0" y="581.266" width="175.5" height="12.0036" class="st4"/>
			<rect x="0" y="581.266" width="175.5" height="12.0036" class="st5"/>
			<text x="9" y="590.27" class="st6">-amount</text>		</g>
		<g id="group196-246" transform="translate(378.375,-171.38)">
			<title>Association.196</title>
			<g id="shape197-247" transform="translate(14.0912,15.381)">
				<title>Sheet.197</title>
				<desc>1</desc>
				<rect x="0.906097" y="583.668" width="4.05478" height="9.59985" class="st9"/>
				<text x="0.91" y="590.87" class="st10">1</text>			</g>
			<g id="shape198-250" transform="translate(14.0912,39.9762)">
				<title>Sheet.198</title>
				<desc>1</desc>
				<rect x="0.906097" y="583.668" width="4.05478" height="9.59985" class="st9"/>
				<text x="0.91" y="590.87" class="st10">1</text>			</g>
			<g id="shape196-253">
				<path d="M9 593.27 L9 639.02" class="st11"/>
			</g>
		</g>
		<g id="group199-256" transform="translate(198.937,-252.583)">
			<title>Association.199</title>
			<g id="shape200-257" transform="translate(8.92212,-5.09117)">
				<title>Sheet.200</title>
				<desc>0..*</desc>
				<rect x="0.906097" y="583.668" width="12.0784" height="9.59985" class="st9"/>
				<text x="0.91" y="590.87" class="st10">0..*</text>			</g>
			<g id="shape201-260" transform="translate(83.6484,151.868)">
				<title>Sheet.201</title>
				<desc>1</desc>
				<rect x="0.906097" y="583.668" width="4.05478" height="9.59985" class="st9"/>
				<text x="0.91" y="590.87" class="st10">1</text>			</g>
			<g id="shape199-263">
				<path d="M0 593.27 L36 593.27 L36 750.23 L98.44 750.23" class="st11"/>
			</g>
		</g>
	</g>
</svg>
