<?xml version="1.0" encoding="UTF-8" standalone="no"?>
<!DOCTYPE svg PUBLIC "-//W3C//DTD SVG 1.1//EN" "http://www.w3.org/Graphics/SVG/1.1/DTD/svg11.dtd">
<!-- Generated by Microsoft Visio, SVG Export 2017-05-22 - SSL Class Diagram.svg Page-1 -->
<svg xmlns="http://www.w3.org/2000/svg" xmlns:xlink="http://www.w3.org/1999/xlink" xmlns:ev="http://www.w3.org/2001/xml-events"
		width="10.5208in" height="11.8047in" viewBox="0 0 757.5 849.938" xml:space="preserve" color-interpolation-filters="sRGB"
		class="st15">
	<style type="text/css">
	<![CDATA[
		.st1 {fill:#f2f2f2;stroke:#000000;stroke-linecap:round;stroke-linejoin:round;stroke-width:0.75}
		.st2 {fill:#ffffff;stroke:#000000;stroke-linecap:round;stroke-linejoin:round;stroke-width:0.75}
		.st3 {fill:#000000;font-family:Calibri;font-size:1.00001em}
		.st4 {fill:#ffffff;fill-opacity:0}
		.st5 {stroke:#000000;stroke-linecap:round;stroke-linejoin:round;stroke-width:0.75;visibility:hidden}
		.st6 {fill:#000000;font-family:Calibri;font-size:0.833336em}
		.st7 {font-size:1em}
		.st8 {fill:#ffffff}
		.st9 {stroke:#000000;stroke-dasharray:0.475276,0.237638;stroke-linecap:butt;stroke-width:0.237638}
		.st10 {marker-end:url(#mrkr14-110);stroke:#000000;stroke-linecap:round;stroke-linejoin:round;stroke-width:0.237638}
		.st11 {fill:#000000;fill-opacity:1;stroke:#000000;stroke-opacity:1;stroke-width:0.086174404659928}
		.st12 {stroke:#000000;stroke-linecap:round;stroke-linejoin:round;stroke-width:0.237638}
		.st13 {fill:#ffffff;stroke:none;stroke-linecap:butt;stroke-width:7.2}
		.st14 {fill:#000000;font-family:Calibri;font-size:0.666664em}
		.st15 {fill:none;fill-rule:evenodd;font-size:12px;overflow:visible;stroke-linecap:square;stroke-miterlimit:3}
	]]>
	</style>

	<defs id="Markers">
		<g id="lend14">
			<path d="M 3 -1 L 0 0 L 3 1 L 3 -1 " style="stroke-linecap:round;stroke-linejoin:round;fill:none"/>
		</g>
		<marker id="mrkr14-110" class="st11" refX="-34.813121272366" orient="auto" markerUnits="strokeWidth" overflow="visible">
			<use xlink:href="#lend14" transform="scale(-11.604373757455,-11.604373757455) "/>
		</marker>
	</defs>
	<g>
		<title>Page-1</title>
		<g id="group1-1" transform="translate(19.125,-555.938)">
			<title>Class</title>
			<desc>Employee</desc>
			<g id="shape2-2">
				<title>Sheet.2</title>
				<path d="M0 849.94 L180 849.94 L180 675.18 L0 675.18 L0 849.94 Z" class="st1"/>
			</g>
			<g id="shape3-4" transform="translate(0,-174.758)">
				<title>Sheet.3</title>
				<path d="M0 849.94 L180 849.94 L180 818.44 L0 818.44 L0 849.94 Z" class="st2"/>
			</g>
			<g id="shape5-6" transform="translate(171,-206.258)">
				<title>Sheet.5</title>
				<desc>parameter</desc>
			</g>
			<g id="shape1-7">
				<text x="4" y="663.03" class="st3">Employee</text>			</g>
		</g>
		<g id="shape6-9" transform="translate(21.375,-596.441)">
			<title>Member</title>
			<desc>-EmployeeID -EmployeeName -EmployeeAddress -EmployeeCity -Emp...</desc>
			<rect x="0" y="717.933" width="175.5" height="132.004" class="st4"/>
			<rect x="0" y="717.933" width="175.5" height="132.004" class="st5"/>
			<text x="9" y="726.94" class="st6">-EmployeeID <tspan x="9" dy="1.2em" class="st7">-</tspan>EmployeeName <tspan x="9"
						dy="1.2em" class="st7">-</tspan>EmployeeAddress <tspan x="9" dy="1.2em" class="st7">-</tspan>EmployeeCity <tspan
						x="9" dy="1.2em" class="st7">-</tspan>EmployeeState <tspan x="9" dy="1.2em" class="st7">-</tspan>EmployeeZip <tspan
						x="9" dy="1.2em" class="st7">-</tspan>EmployeePhone <tspan x="9" dy="1.2em" class="st7">-</tspan>EmployeeEmail <tspan
						x="9" dy="1.2em" class="st7">-</tspan>EmployeeRole <tspan x="9" dy="1.2em" class="st7">-</tspan>EmployeeUsername <tspan
						x="9" dy="1.2em" class="st7">-</tspan>EmployeePassword</text>		</g>
		<g id="shape7-23" transform="translate(21.375,-594.191)">
			<title>Separator</title>
			<path d="M0 848.81 L175.5 848.81 L0 848.81 Z" class="st8"/>
			<path d="M0 848.81 L175.5 848.81" class="st9"/>
		</g>
		<g id="shape8-26" transform="translate(21.375,-558.188)">
			<title>Member.8</title>
			<desc>+Login() +GenerateBidProposal() +GenerateInvoice()</desc>
			<rect x="0" y="813.934" width="175.5" height="36.0037" class="st4"/>
			<rect x="0" y="813.934" width="175.5" height="36.0037" class="st5"/>
			<text x="9" y="822.94" class="st6">+Login() <tspan x="9" dy="1.2em" class="st7">+</tspan>GenerateBidProposal() <tspan
						x="9" dy="1.2em" class="st7">+</tspan>GenerateInvoice()</text>		</g>
		<g id="group9-32" transform="translate(18.375,-783.559)">
			<title>Class.9</title>
			<desc>Executive</desc>
			<g id="shape10-33">
				<title>Sheet.10</title>
				<path d="M0 849.94 L180 849.94 L180 833.43 L0 833.43 L0 849.94 Z" class="st1"/>
			</g>
			<g id="shape11-35" transform="translate(0,-16.5036)">
				<title>Sheet.11</title>
				<path d="M0 849.94 L180 849.94 L180 818.44 L0 818.44 L0 849.94 Z" class="st2"/>
			</g>
			<g id="shape13-37" transform="translate(171,-48.0036)">
				<title>Sheet.13</title>
				<desc>parameter</desc>
			</g>
			<g id="shape9-38">
				<text x="4" y="821.28" class="st3">Executive</text>			</g>
		</g>
		<g id="shape16-40" transform="translate(20.625,-785.809)">
			<title>Member.16</title>
			<desc>+generateReport()</desc>
			<rect x="0" y="837.934" width="175.5" height="12.0036" class="st4"/>
			<rect x="0" y="837.934" width="175.5" height="12.0036" class="st5"/>
			<text x="9" y="846.94" class="st6">+generateReport()</text>		</g>
		<g id="group17-44" transform="translate(250.875,-652.688)">
			<title>Class.17</title>
			<desc>Technician</desc>
			<g id="shape18-45">
				<title>Sheet.18</title>
				<path d="M0 849.94 L180 849.94 L180 783.18 L0 783.18 L0 849.94 Z" class="st1"/>
			</g>
			<g id="shape19-47" transform="translate(0,-66.7574)">
				<title>Sheet.19</title>
				<path d="M0 849.94 L180 849.94 L180 818.44 L0 818.44 L0 849.94 Z" class="st2"/>
			</g>
			<g id="shape21-49" transform="translate(171,-98.2574)">
				<title>Sheet.21</title>
				<desc>parameter</desc>
			</g>
			<g id="shape17-50">
				<text x="4" y="771.03" class="st3">Technician</text>			</g>
		</g>
		<g id="shape22-52" transform="translate(253.125,-705.192)">
			<title>Member.22</title>
			<desc>-skillSet</desc>
			<rect x="0" y="837.934" width="175.5" height="12.0036" class="st4"/>
			<rect x="0" y="837.934" width="175.5" height="12.0036" class="st5"/>
			<text x="9" y="846.94" class="st6">-skillSet</text>		</g>
		<g id="shape23-56" transform="translate(253.125,-702.942)">
			<title>Separator.23</title>
			<path d="M0 848.81 L175.5 848.81 L0 848.81 Z" class="st8"/>
			<path d="M0 848.81 L175.5 848.81" class="st9"/>
		</g>
		<g id="shape24-59" transform="translate(253.125,-654.938)">
			<title>Member.24</title>
			<desc>+maintainConsulatations() +maintainInstallations() +evaluateC...</desc>
			<rect x="0" y="801.934" width="175.5" height="48.0037" class="st4"/>
			<rect x="0" y="801.934" width="175.5" height="48.0037" class="st5"/>
			<text x="9" y="810.94" class="st6">+maintainConsulatations() <tspan x="9" dy="1.2em" class="st7">+</tspan>maintainInstallations() <tspan
						x="9" dy="1.2em" class="st7">+</tspan>evaluateContractor() <tspan x="9" dy="1.2em" class="st7">+</tspan>noteEquipment()</text>		</g>
		<g id="group25-66" transform="translate(250.875,-510.941)">
			<title>Class.25</title>
			<desc>Office Manager</desc>
			<g id="shape26-67">
				<title>Sheet.26</title>
				<path d="M0 849.94 L180 849.94 L180 773.43 L0 773.43 L0 849.94 Z" class="st1"/>
			</g>
			<g id="shape27-69" transform="translate(0,-76.5038)">
				<title>Sheet.27</title>
				<path d="M0 849.94 L180 849.94 L180 818.44 L0 818.44 L0 849.94 Z" class="st2"/>
			</g>
			<g id="shape29-71" transform="translate(171,-108.004)">
				<title>Sheet.29</title>
				<desc>parameter</desc>
			</g>
			<g id="shape25-72">
				<text x="4" y="761.28" class="st3">Office Manager</text>			</g>
		</g>
		<g id="shape32-74" transform="translate(253.125,-513.191)">
			<title>Member.32</title>
			<desc>+maintainCustomers() +maintainEmployees() +maintainContractor...</desc>
			<rect x="0" y="777.934" width="175.5" height="72.0038" class="st4"/>
			<rect x="0" y="777.934" width="175.5" height="72.0038" class="st5"/>
			<text x="9" y="786.94" class="st6">+maintainCustomers()<tspan x="9" dy="1.2em" class="st7">+</tspan>maintainEmployees() <tspan
						x="9" dy="1.2em" class="st7">+</tspan>maintainContractors() <tspan x="9" dy="1.2em" class="st7">+</tspan>viewEmployeeSchedule()<tspan
						x="9" dy="1.2em" class="st7">+</tspan>viewEquipmentRented() <tspan x="9" dy="1.2em" class="st7">+</tspan>viewRentalHistory()</text>		</g>
		<g id="group53-83" transform="translate(19.125,-394.684)">
			<title>Class.53</title>
			<desc>Contractor</desc>
			<g id="shape54-84">
				<title>Sheet.54</title>
				<path d="M0 849.94 L180 849.94 L180 725.43 L0 725.43 L0 849.94 Z" class="st1"/>
			</g>
			<g id="shape55-86" transform="translate(0,-124.504)">
				<title>Sheet.55</title>
				<path d="M0 849.94 L180 849.94 L180 818.44 L0 818.44 L0 849.94 Z" class="st2"/>
			</g>
			<g id="shape57-88" transform="translate(171,-156.004)">
				<title>Sheet.57</title>
				<desc>parameter</desc>
			</g>
			<g id="shape53-89">
				<text x="4" y="713.28" class="st3">Contractor</text>			</g>
		</g>
		<g id="shape58-91" transform="translate(21.375,-396.934)">
			<title>Member.58</title>
			<desc>-contractorID -contractorName -contractorAddress -contractorS...</desc>
			<rect x="0" y="729.934" width="175.5" height="120.004" class="st4"/>
			<rect x="0" y="729.934" width="175.5" height="120.004" class="st5"/>
			<text x="9" y="738.94" class="st6">-contractorID <tspan x="9" dy="1.2em" class="st7">-</tspan>contractorName <tspan
						x="9" dy="1.2em" class="st7">-</tspan>contractorAddress <tspan x="9" dy="1.2em" class="st7">-</tspan>contractorState <tspan
						x="9" dy="1.2em" class="st7">-</tspan>contractorZip <tspan x="9" dy="1.2em" class="st7">-</tspan>contractorPhone <tspan
						x="9" dy="1.2em" class="st7">-</tspan>contractorEmail <tspan x="9" dy="1.2em" class="st7">-</tspan>contractorSkills <tspan
						x="9" dy="1.2em" class="st7">-</tspan>contractorOrganization <tspan x="9" dy="1.2em" class="st7">-</tspan>contractorComments</text>		</g>
		<g id="group66-104" transform="translate(250.875,-701.817)">
			<title>Inheritance.66</title>
			<g id="shape66-105">
				<path d="M0 849.94 L-35.95 849.94 L-35.95 892.69 L-43.48 892.69" class="st10"/>
			</g>
		</g>
		<g id="group71-111" transform="translate(214.875,-662.067)">
			<title>Association</title>
			<g id="shape71-112">
				<path d="M0 849.94 L0 947.06 L36 947.06" class="st12"/>
			</g>
		</g>
		<g id="group77-115" transform="translate(18.75,-185.82)">
			<title>Class.77</title>
			<desc>Customer</desc>
			<g id="shape78-116">
				<title>Sheet.78</title>
				<path d="M0 849.94 L180 849.94 L180 687.18 L0 687.18 L0 849.94 Z" class="st1"/>
			</g>
			<g id="shape79-118" transform="translate(0,-162.758)">
				<title>Sheet.79</title>
				<path d="M0 849.94 L180 849.94 L180 818.44 L0 818.44 L0 849.94 Z" class="st2"/>
			</g>
			<g id="shape81-120" transform="translate(171,-194.258)">
				<title>Sheet.81</title>
				<desc>parameter</desc>
			</g>
			<g id="shape77-121">
				<text x="4" y="675.03" class="st3">Customer</text>			</g>
		</g>
		<g id="shape82-123" transform="translate(21,-238.324)">
			<title>Member.82</title>
			<desc>-customerID -customerName -customerAddress -customerCity -cus...</desc>
			<rect x="0" y="741.934" width="175.5" height="108.004" class="st4"/>
			<rect x="0" y="741.934" width="175.5" height="108.004" class="st5"/>
			<text x="9" y="750.94" class="st6">-customerID <tspan x="9" dy="1.2em" class="st7">-</tspan>customerName <tspan x="9"
						dy="1.2em" class="st7">-</tspan>customerAddress <tspan x="9" dy="1.2em" class="st7">-</tspan>customerCity <tspan
						x="9" dy="1.2em" class="st7">-</tspan>customerState <tspan x="9" dy="1.2em" class="st7">-</tspan>customerZip <tspan
						x="9" dy="1.2em" class="st7">-</tspan>customerPhone <tspan x="9" dy="1.2em" class="st7">-</tspan>customerEmail <tspan
						x="9" dy="1.2em" class="st7">-</tspan>customerCompanyName</text>		</g>
		<g id="shape83-135" transform="translate(21,-236.074)">
			<title>Separator.83</title>
			<path d="M0 848.81 L175.5 848.81 L0 848.81 Z" class="st8"/>
			<path d="M0 848.81 L175.5 848.81" class="st9"/>
		</g>
		<g id="shape84-138" transform="translate(21,-188.07)">
			<title>Member.84</title>
			<desc>+requestConsultation() +requestInstallation() +rentEquipment(...</desc>
			<rect x="0" y="801.934" width="175.5" height="48.0037" class="st4"/>
			<rect x="0" y="801.934" width="175.5" height="48.0037" class="st5"/>
			<text x="9" y="810.94" class="st6">+requestConsultation() <tspan x="9" dy="1.2em" class="st7">+</tspan>requestInstallation() <tspan
						x="9" dy="1.2em" class="st7">+</tspan>rentEquipment() <tspan x="9" dy="1.2em" class="st7">+</tspan>buyEquipment()</text>		</g>
		<g id="group85-145" transform="translate(309.562,-18.375)">
			<title>Class.85</title>
			<desc>Equipment</desc>
			<g id="shape86-146">
				<title>Sheet.86</title>
				<path d="M0 849.94 L180 849.94 L180 761.43 L0 761.43 L0 849.94 Z" class="st1"/>
			</g>
			<g id="shape87-148" transform="translate(0,-88.5039)">
				<title>Sheet.87</title>
				<path d="M0 849.94 L180 849.94 L180 818.44 L0 818.44 L0 849.94 Z" class="st2"/>
			</g>
			<g id="shape89-150" transform="translate(171,-120.004)">
				<title>Sheet.89</title>
				<desc>parameter</desc>
			</g>
			<g id="shape85-151">
				<text x="4" y="749.28" class="st3">Equipment</text>			</g>
		</g>
		<g id="shape90-153" transform="translate(311.812,-20.625)">
			<title>Member.90</title>
			<desc>-equipmentID -equipmentType -equipmentRentalCost -equipmentBu...</desc>
			<rect x="0" y="765.934" width="175.5" height="84.0039" class="st4"/>
			<rect x="0" y="765.934" width="175.5" height="84.0039" class="st5"/>
			<text x="9" y="774.94" class="st6">-equipmentID <tspan x="9" dy="1.2em" class="st7">-</tspan>equipmentType <tspan x="9"
						dy="1.2em" class="st7">-</tspan>equipmentRentalCost <tspan x="9" dy="1.2em" class="st7">-</tspan>equipmentBuyCost <tspan
						x="9" dy="1.2em" class="st7">-</tspan>equipmentMaitenanceDate <tspan x="9" dy="1.2em" class="st7">-</tspan>equipmentCondition <tspan
						x="9" dy="1.2em" class="st7">-</tspan>equipmentComments</text>		</g>
		<g id="group101-163" transform="translate(289.125,-279.926)">
			<title>Class.101</title>
			<desc>Invoice</desc>
			<g id="shape102-164">
				<title>Sheet.102</title>
				<path d="M0 849.94 L180 849.94 L180 773.43 L0 773.43 L0 849.94 Z" class="st1"/>
			</g>
			<g id="shape103-166" transform="translate(0,-76.5038)">
				<title>Sheet.103</title>
				<path d="M0 849.94 L180 849.94 L180 818.44 L0 818.44 L0 849.94 Z" class="st2"/>
			</g>
			<g id="shape105-168" transform="translate(171,-108.004)">
				<title>Sheet.105</title>
				<desc>parameter</desc>
			</g>
			<g id="shape101-169">
				<text x="4" y="761.28" class="st3">Invoice</text>			</g>
		</g>
		<g id="shape106-171" transform="translate(291.375,-282.176)">
			<title>Member.106</title>
			<desc>-invoiceID -paymentMethod -invoiceDate -paymentDate -invoiceA...</desc>
			<rect x="0" y="777.934" width="175.5" height="72.0038" class="st4"/>
			<rect x="0" y="777.934" width="175.5" height="72.0038" class="st5"/>
			<text x="9" y="786.94" class="st6">-invoiceID <tspan x="9" dy="1.2em" class="st7">-</tspan>paymentMethod <tspan x="9"
						dy="1.2em" class="st7">-</tspan>invoiceDate <tspan x="9" dy="1.2em" class="st7">-</tspan>paymentDate <tspan
						x="9" dy="1.2em" class="st7">-</tspan>invoiceAmount <tspan x="9" dy="1.2em" class="st7">-</tspan>invoiceDescription</text>		</g>
		<g id="group124-180" transform="translate(559.125,-657.19)">
			<title>Class.124</title>
			<desc>Installation</desc>
			<g id="shape125-181">
				<title>Sheet.125</title>
				<path d="M0 849.94 L180 849.94 L180 785.43 L0 785.43 L0 849.94 Z" class="st1"/>
			</g>
			<g id="shape126-183" transform="translate(0,-64.5038)">
				<title>Sheet.126</title>
				<path d="M0 849.94 L180 849.94 L180 818.44 L0 818.44 L0 849.94 Z" class="st2"/>
			</g>
			<g id="shape128-185" transform="translate(171,-96.0038)">
				<title>Sheet.128</title>
				<desc>parameter</desc>
			</g>
			<g id="shape124-186">
				<text x="4" y="773.28" class="st3">Installation</text>			</g>
		</g>
		<g id="shape129-188" transform="translate(561.375,-659.44)">
			<title>Member.129</title>
			<desc>-installationID -installationStartDate -installationEndDate -...</desc>
			<rect x="0" y="789.934" width="175.5" height="60.0038" class="st4"/>
			<rect x="0" y="789.934" width="175.5" height="60.0038" class="st5"/>
			<text x="9" y="798.94" class="st6">-installationID <tspan x="9" dy="1.2em" class="st7">-</tspan>installationStartDate <tspan
						x="9" dy="1.2em" class="st7">-</tspan>installationEndDate <tspan x="9" dy="1.2em" class="st7">-</tspan>installationCost <tspan
						x="9" dy="1.2em" class="st7">-</tspan>installationComments</text>		</g>
		<g id="group132-196" transform="translate(18.75,-29.4411)">
			<title>Class.132</title>
			<desc>Rental</desc>
			<g id="shape133-197">
				<title>Sheet.133</title>
				<path d="M0 849.94 L180 849.94 L180 785.43 L0 785.43 L0 849.94 Z" class="st1"/>
			</g>
			<g id="shape134-199" transform="translate(0,-64.5038)">
				<title>Sheet.134</title>
				<path d="M0 849.94 L180 849.94 L180 818.44 L0 818.44 L0 849.94 Z" class="st2"/>
			</g>
			<g id="shape136-201" transform="translate(171,-96.0038)">
				<title>Sheet.136</title>
				<desc>parameter</desc>
			</g>
			<g id="shape132-202">
				<text x="4" y="773.28" class="st3">Rental</text>			</g>
		</g>
		<g id="shape137-204" transform="translate(21,-31.6911)">
			<title>Member.137</title>
			<desc>-rentalID -rentalCost -rentalStartDate -rentalEndDate -comments</desc>
			<rect x="0" y="789.934" width="175.5" height="60.0038" class="st4"/>
			<rect x="0" y="789.934" width="175.5" height="60.0038" class="st5"/>
			<text x="9" y="798.94" class="st6">-rentalID <tspan x="9" dy="1.2em" class="st7">-</tspan>rentalCost <tspan x="9"
						dy="1.2em" class="st7">-</tspan>rentalStartDate <tspan x="9" dy="1.2em" class="st7">-</tspan>rentalEndDate <tspan
						x="9" dy="1.2em" class="st7">-</tspan>comments</text>		</g>
		<g id="group150-212" transform="translate(198.525,-324.928)">
			<title>Association.150</title>
			<desc>Recieves</desc>
			<g id="shape152-213" transform="translate(6.45017,5.69473)">
				<title>Sheet.152</title>
				<desc>0..*</desc>
				<rect x="0.906097" y="840.336" width="12.0784" height="9.59985" class="st13"/>
				<text x="0.91" y="847.54" class="st14">0..*</text>			</g>
			<g id="shape154-216" transform="translate(78.2828,5.69473)">
				<title>Sheet.154</title>
				<desc>1</desc>
				<rect x="0.906097" y="840.336" width="4.05478" height="9.59985" class="st13"/>
				<text x="0.91" y="847.54" class="st14">1</text>			</g>
			<g id="shape150-219">
				<path d="M0 840.94 L90.6 840.94" class="st12"/>
				<rect x="27.646" y="834.938" width="35.3081" height="12.0001" class="st13"/>
				<text x="27.65" y="843.94" class="st6">Recieves</text>			</g>
		</g>
		<g id="group165-224" transform="translate(430.875,-694.504)">
			<title>Association.165</title>
			<desc>Performs</desc>
			<g id="shape166-225" transform="translate(7.06554,-12.4037)">
				<title>Sheet.166</title>
				<desc>0..*</desc>
				<rect x="0.906097" y="840.336" width="12.0784" height="9.59985" class="st13"/>
				<text x="0.91" y="847.54" class="st14">0..*</text>			</g>
			<g id="shape168-228" transform="translate(117.292,7.57158)">
				<title>Sheet.168</title>
				<desc>1</desc>
				<rect x="0.906097" y="840.336" width="4.05478" height="9.59985" class="st13"/>
				<text x="0.91" y="847.54" class="st14">1</text>			</g>
			<g id="shape165-231">
				<path d="M0 842.63 L128.25 842.63 L128.25 839.25" class="st12"/>
				<rect x="47.1431" y="836.625" width="37.339" height="12.0001" class="st13"/>
				<text x="47.14" y="845.63" class="st6">Performs</text>			</g>
		</g>
		<g id="group170-236" transform="translate(557.75,-488.188)">
			<title>Class.170</title>
			<desc>Consultation</desc>
			<g id="shape171-237">
				<title>Sheet.171</title>
				<path d="M0 849.94 L180 849.94 L180 797.43 L0 797.43 L0 849.94 Z" class="st1"/>
			</g>
			<g id="shape172-239" transform="translate(0,-52.5037)">
				<title>Sheet.172</title>
				<path d="M0 849.94 L180 849.94 L180 818.44 L0 818.44 L0 849.94 Z" class="st2"/>
			</g>
			<g id="shape174-241" transform="translate(171,-84.0037)">
				<title>Sheet.174</title>
				<desc>parameter</desc>
			</g>
			<g id="shape170-242">
				<text x="4" y="785.28" class="st3">Consultation</text>			</g>
		</g>
		<g id="shape175-244" transform="translate(560,-490.438)">
			<title>Member.175</title>
			<desc>-consultationID -consultationDate -consultationCost -consulta...</desc>
			<rect x="0" y="801.934" width="175.5" height="48.0037" class="st4"/>
			<rect x="0" y="801.934" width="175.5" height="48.0037" class="st5"/>
			<text x="9" y="810.94" class="st6">-consultationID <tspan x="9" dy="1.2em" class="st7">-</tspan>consultationDate <tspan
						x="9" dy="1.2em" class="st7">-</tspan>consultationCost <tspan x="9" dy="1.2em" class="st7">-</tspan>consultationComments</text>		</g>
		<g id="group178-251" transform="translate(431.273,-660.023)">
			<title>Association.178</title>
			<desc>Informs</desc>
			<g id="shape179-252" transform="translate(8.93583,-5.09117)">
				<title>Sheet.179</title>
				<desc>0..*</desc>
				<rect x="0.906097" y="840.336" width="12.0784" height="9.59985" class="st13"/>
				<text x="0.91" y="847.54" class="st14">0..*</text>			</g>
			<g id="shape181-255" transform="translate(111.674,124.743)">
				<title>Sheet.181</title>
				<desc>1</desc>
				<rect x="0.906097" y="840.336" width="4.05478" height="9.59985" class="st13"/>
				<text x="0.91" y="847.54" class="st14">1</text>			</g>
			<g id="shape178-258">
				<path d="M0 849.94 L27.73 849.94 L27.73 979.77 L41.6 979.77 A3 3 0 0 1 47.6 979.77 L126.48 979.77" class="st12"/>
				<rect x="11.9845" y="944.366" width="31.4843" height="12.0001" class="st13"/>
				<text x="11.98" y="953.37" class="st6">Informs</text>			</g>
		</g>
		<g id="group183-263" transform="translate(199.125,-472.686)">
			<title>Association.183</title>
			<desc>Hires</desc>
			<g id="shape184-264" transform="translate(7.27791,-5.09117)">
				<title>Sheet.184</title>
				<desc>1</desc>
				<rect x="0.906097" y="840.336" width="4.05478" height="9.59985" class="st13"/>
				<text x="0.91" y="847.54" class="st14">1</text>			</g>
			<g id="shape186-267" transform="translate(89.0182,-20.9015)">
				<title>Sheet.186</title>
				<desc>0..*</desc>
				<rect x="0.906097" y="840.336" width="12.0784" height="9.59985" class="st13"/>
				<text x="0.91" y="847.54" class="st14">0..*</text>			</g>
			<g id="shape183-270">
				<path d="M0 849.94 L108 849.94 L108 812.15" class="st12"/>
				<rect x="62.442" y="843.938" width="20.8987" height="12.0001" class="st13"/>
				<text x="62.44" y="852.94" class="st6">Hires</text>			</g>
		</g>
		<g id="group188-275" transform="translate(198.75,-86.3465)">
			<title>Association.188</title>
			<desc>Rents</desc>
			<g id="shape190-276" transform="translate(6.74731,23.61)">
				<title>Sheet.190</title>
				<desc>0..*</desc>
				<rect x="0.906097" y="840.336" width="12.0784" height="9.59985" class="st13"/>
				<text x="0.91" y="847.54" class="st14">0..*</text>			</g>
			<g id="shape192-279" transform="translate(98.368,23.7795)">
				<title>Sheet.192</title>
				<desc>1</desc>
				<rect x="0.906097" y="840.336" width="4.05478" height="9.59985" class="st13"/>
				<text x="0.91" y="847.54" class="st14">1</text>			</g>
			<g id="shape188-282">
				<path d="M0 858.84 L111 859.03" class="st12"/>
				<rect x="44.0398" y="852.938" width="22.9202" height="12.0001" class="st13"/>
				<text x="44.04" y="861.94" class="st6">Rents</text>			</g>
		</g>
		<g id="group193-287" transform="translate(350.062,-510.5)">
			<title>Association.193</title>
			<desc>Sends</desc>
			<g id="shape194-288" transform="translate(14.0912,16.527)">
				<title>Sheet.194</title>
				<desc>0..*</desc>
				<rect x="0.906097" y="840.336" width="12.0784" height="9.59985" class="st13"/>
				<text x="0.91" y="847.54" class="st14">0..*</text>			</g>
			<g id="shape196-291" transform="translate(14.0912,115.227)">
				<title>Sheet.196</title>
				<desc>1</desc>
				<rect x="0.906097" y="840.336" width="4.05478" height="9.59985" class="st13"/>
				<text x="0.91" y="847.54" class="st14">1</text>			</g>
			<g id="shape193-294">
				<path d="M9 849.94 L9 972.09" class="st12"/>
				<rect x="-2.99466" y="905.013" width="23.9895" height="12.0001" class="st13"/>
				<text x="-2.99" y="914.01" class="st6">Sends</text>			</g>
		</g>
		<g id="group198-299" transform="translate(99.75,-185.82)">
			<title>Association.198</title>
			<desc>Rents</desc>
			<g id="shape200-300" transform="translate(-9.98176,15.6004)">
				<title>Sheet.200</title>
				<desc>0..*</desc>
				<rect x="0.906097" y="840.336" width="12.0784" height="9.59985" class="st13"/>
				<text x="0.91" y="847.54" class="st14">0..*</text>			</g>
			<g id="shape202-303" transform="translate(-1.95817,54.3782)">
				<title>Sheet.202</title>
				<desc>1</desc>
				<rect x="0.906097" y="840.336" width="4.05478" height="9.59985" class="st13"/>
				<text x="0.91" y="847.54" class="st14">1</text>			</g>
			<g id="shape198-306">
				<path d="M9 849.94 L9 910.31" class="st12"/>
				<rect x="-2.46017" y="874.125" width="22.9202" height="12.0001" class="st13"/>
				<text x="-2.46" y="883.13" class="st6">Rents</text>			</g>
		</g>
		<g id="group203-311" transform="translate(99.375,-783.559)">
			<title>Inheritance</title>
			<g id="shape203-312">
				<path d="M9 849.94 L9 862.97" class="st10"/>
			</g>
		</g>
		<g id="group208-317" transform="translate(647.75,-488.188)">
			<title>Association.208</title>
			<g id="shape209-318" transform="translate(5.09117,25.3607)">
				<title>Sheet.209</title>
				<desc>1</desc>
				<rect x="0.906097" y="840.336" width="4.05478" height="9.59985" class="st13"/>
				<text x="0.91" y="847.54" class="st14">1</text>			</g>
			<g id="shape212-321" transform="translate(-433.243,256.973)">
				<title>Sheet.212</title>
				<desc>0..*</desc>
				<rect x="0.906097" y="840.336" width="12.0784" height="9.59985" class="st13"/>
				<text x="0.91" y="847.54" class="st14">0..*</text>			</g>
			<g id="shape208-324">
				<path d="M0 849.94 L0 1112 L-449 1112" class="st12"/>
			</g>
		</g>
		<g id="group213-327" transform="translate(649.125,-657.19)">
			<title>Association.213</title>
			<g id="shape214-328" transform="translate(5.09117,27.1949)">
				<title>Sheet.214</title>
				<desc>1</desc>
				<rect x="0.906097" y="840.336" width="4.05478" height="9.59985" class="st13"/>
				<text x="0.91" y="847.54" class="st14">1</text>			</g>
			<g id="shape217-331" transform="translate(-432.784,377.88)">
				<title>Sheet.217</title>
				<desc>0..*</desc>
				<rect x="0.906097" y="840.336" width="12.0784" height="9.59985" class="st13"/>
				<text x="0.91" y="847.54" class="st14">0..*</text>			</g>
			<g id="shape213-334">
				<path d="M0 849.94 L0 895.13 L-173.25 895.13 L-173.25 1232.91 L-450.38 1232.91" class="st12"/>
			</g>
		</g>
	</g>
</svg>
