<?xml version="1.0" encoding="UTF-8" standalone="no"?>
<!DOCTYPE svg PUBLIC "-//W3C//DTD SVG 1.1//EN" "http://www.w3.org/Graphics/SVG/1.1/DTD/svg11.dtd">
<!-- Generated by Microsoft Visio, SVG Export 2017-05-22 - SSL Class Diagram.svg Page-1 -->
<svg xmlns="http://www.w3.org/2000/svg" xmlns:xlink="http://www.w3.org/1999/xlink" xmlns:ev="http://www.w3.org/2001/xml-events"
		width="10.5208in" height="11.7109in" viewBox="0 0 757.5 843.188" xml:space="preserve" color-interpolation-filters="sRGB"
		class="st15">
	<style type="text/css">
	<![CDATA[
		.st1 {fill:#f2f2f2;stroke:#000000;stroke-linecap:round;stroke-linejoin:round;stroke-width:0.75}
		.st2 {fill:#ffffff;stroke:#000000;stroke-linecap:round;stroke-linejoin:round;stroke-width:0.75}
		.st3 {fill:#000000;font-family:Calibri;font-size:1.00001em}
		.st4 {fill:#ffffff;fill-opacity:0}
		.st5 {stroke:#000000;stroke-linecap:round;stroke-linejoin:round;stroke-width:0.75;visibility:hidden}
		.st6 {fill:#000000;font-family:Calibri;font-size:0.833336em}
		.st7 {font-size:1em}
		.st8 {fill:#ffffff}
		.st9 {stroke:#000000;stroke-dasharray:1.5,0.75;stroke-linecap:butt;stroke-width:0.75}
		.st10 {marker-end:url(#mrkr14-116);stroke:#000000;stroke-linecap:round;stroke-linejoin:round;stroke-width:0.75}
		.st11 {fill:#000000;fill-opacity:1;stroke:#000000;stroke-opacity:1;stroke-width:0.22935779816514}
		.st12 {stroke:#000000;stroke-linecap:round;stroke-linejoin:round;stroke-width:0.75}
		.st13 {fill:#ffffff;stroke:none;stroke-linecap:butt;stroke-width:7.2}
		.st14 {fill:#000000;font-family:Calibri;font-size:0.666664em}
		.st15 {fill:none;fill-rule:evenodd;font-size:12px;overflow:visible;stroke-linecap:square;stroke-miterlimit:3}
	]]>
	</style>

	<defs id="Markers">
		<g id="lend14">
			<path d="M 3 -1 L 0 0 L 3 1 L 3 -1 " style="stroke-linecap:round;stroke-linejoin:round;fill:none"/>
		</g>
		<marker id="mrkr14-116" class="st11" refX="-13.08" orient="auto" markerUnits="strokeWidth" overflow="visible">
			<use xlink:href="#lend14" transform="scale(-4.36,-4.36) "/>
		</marker>
	</defs>
	<g>
		<title>Page-1</title>
		<g id="group1-1" transform="translate(19.125,-570.938)">
			<title>Class</title>
			<desc>Employee</desc>
			<g id="shape2-2">
				<title>Sheet.2</title>
				<path d="M0 843.19 L180 843.19 L180 692.43 L0 692.43 L0 843.19 Z" class="st1"/>
			</g>
			<g id="shape3-4" transform="translate(0,-150.758)">
				<title>Sheet.3</title>
				<path d="M0 843.19 L180 843.19 L180 811.69 L0 811.69 L0 843.19 Z" class="st2"/>
			</g>
			<g id="shape5-6" transform="translate(171,-182.258)">
				<title>Sheet.5</title>
				<desc>parameter</desc>
			</g>
			<g id="shape1-7">
				<text x="4" y="680.28" class="st3">Employee</text>			</g>
		</g>
		<g id="shape6-9" transform="translate(21.375,-611.441)">
			<title>Member</title>
			<desc>-EmployeeID -EmployeeName -EmployeeAddress -EmployeeCity -Emp...</desc>
			<rect x="0" y="735.184" width="175.5" height="108.004" class="st4"/>
			<rect x="0" y="735.184" width="175.5" height="108.004" class="st5"/>
			<text x="9" y="744.19" class="st6">-EmployeeID <tspan x="9" dy="1.2em" class="st7">-</tspan>EmployeeName <tspan x="9"
						dy="1.2em" class="st7">-</tspan>EmployeeAddress <tspan x="9" dy="1.2em" class="st7">-</tspan>EmployeeCity <tspan
						x="9" dy="1.2em" class="st7">-</tspan>EmployeeState <tspan x="9" dy="1.2em" class="st7">-</tspan>EmployeeZip <tspan
						x="9" dy="1.2em" class="st7">-</tspan>EmployeePhone <tspan x="9" dy="1.2em" class="st7">-</tspan>EmployeeEmail <tspan
						x="9" dy="1.2em" class="st7">-</tspan>EmployeeRole</text>		</g>
		<g id="shape7-21" transform="translate(21.375,-609.191)">
			<title>Separator</title>
			<path d="M0 842.06 L175.5 842.06 L0 842.06 Z" class="st8"/>
			<path d="M0 842.06 L175.5 842.06" class="st9"/>
		</g>
		<g id="shape8-24" transform="translate(21.375,-573.188)">
			<title>Member.8</title>
			<desc>+Login() +GenerateBidProposal() +GenerateInvoice()</desc>
			<rect x="0" y="807.184" width="175.5" height="36.0037" class="st4"/>
			<rect x="0" y="807.184" width="175.5" height="36.0037" class="st5"/>
			<text x="9" y="816.19" class="st6">+Login() <tspan x="9" dy="1.2em" class="st7">+</tspan>GenerateBidProposal() <tspan
						x="9" dy="1.2em" class="st7">+</tspan>GenerateInvoice()</text>		</g>
		<g id="group9-30" transform="translate(18.375,-776.809)">
			<title>Class.9</title>
			<desc>Executive</desc>
			<g id="shape10-31">
				<title>Sheet.10</title>
				<path d="M0 843.19 L180 843.19 L180 826.68 L0 826.68 L0 843.19 Z" class="st1"/>
			</g>
			<g id="shape11-33" transform="translate(0,-16.5036)">
				<title>Sheet.11</title>
				<path d="M0 843.19 L180 843.19 L180 811.69 L0 811.69 L0 843.19 Z" class="st2"/>
			</g>
			<g id="shape13-35" transform="translate(171,-48.0036)">
				<title>Sheet.13</title>
				<desc>parameter</desc>
			</g>
			<g id="shape9-36">
				<text x="4" y="814.53" class="st3">Executive</text>			</g>
		</g>
		<g id="shape16-38" transform="translate(20.625,-779.059)">
			<title>Member.16</title>
			<desc>+generateReport()</desc>
			<rect x="0" y="831.184" width="175.5" height="12.0036" class="st4"/>
			<rect x="0" y="831.184" width="175.5" height="12.0036" class="st5"/>
			<text x="9" y="840.19" class="st6">+generateReport()</text>		</g>
		<g id="group17-42" transform="translate(250.875,-640.688)">
			<title>Class.17</title>
			<desc>Technician</desc>
			<g id="shape18-43">
				<title>Sheet.18</title>
				<path d="M0 843.19 L180 843.19 L180 764.43 L0 764.43 L0 843.19 Z" class="st1"/>
			</g>
			<g id="shape19-45" transform="translate(0,-78.7574)">
				<title>Sheet.19</title>
				<path d="M0 843.19 L180 843.19 L180 811.69 L0 811.69 L0 843.19 Z" class="st2"/>
			</g>
			<g id="shape21-47" transform="translate(171,-110.257)">
				<title>Sheet.21</title>
				<desc>parameter</desc>
			</g>
			<g id="shape17-48">
				<text x="4" y="752.28" class="st3">Technician</text>			</g>
		</g>
		<g id="shape22-50" transform="translate(253.125,-693.192)">
			<title>Member.22</title>
			<desc>-employeeID -skillSet</desc>
			<rect x="0" y="819.184" width="175.5" height="24.0037" class="st4"/>
			<rect x="0" y="819.184" width="175.5" height="24.0037" class="st5"/>
			<text x="9" y="828.19" class="st6">-employeeID <tspan x="9" dy="1.2em" class="st7">-</tspan>skillSet</text>		</g>
		<g id="shape23-55" transform="translate(253.125,-690.942)">
			<title>Separator.23</title>
			<path d="M0 842.06 L175.5 842.06 L0 842.06 Z" class="st8"/>
			<path d="M0 842.06 L175.5 842.06" class="st9"/>
		</g>
		<g id="shape24-58" transform="translate(253.125,-642.938)">
			<title>Member.24</title>
			<desc>+maintainConsulatations() +maintainInstallations() +evaluateC...</desc>
			<rect x="0" y="795.184" width="175.5" height="48.0037" class="st4"/>
			<rect x="0" y="795.184" width="175.5" height="48.0037" class="st5"/>
			<text x="9" y="804.19" class="st6">+maintainConsulatations() <tspan x="9" dy="1.2em" class="st7">+</tspan>maintainInstallations() <tspan
						x="9" dy="1.2em" class="st7">+</tspan>evaluateContractor() <tspan x="9" dy="1.2em" class="st7">+</tspan>noteEquipment()</text>		</g>
		<g id="group25-65" transform="translate(250.875,-496.688)">
			<title>Class.25</title>
			<desc>Office Manager</desc>
			<g id="shape26-66">
				<title>Sheet.26</title>
				<path d="M0 843.19 L180 843.19 L180 752.43 L0 752.43 L0 843.19 Z" class="st1"/>
			</g>
			<g id="shape27-68" transform="translate(0,-90.7575)">
				<title>Sheet.27</title>
				<path d="M0 843.19 L180 843.19 L180 811.69 L0 811.69 L0 843.19 Z" class="st2"/>
			</g>
			<g id="shape29-70" transform="translate(171,-122.257)">
				<title>Sheet.29</title>
				<desc>parameter</desc>
			</g>
			<g id="shape25-71">
				<text x="4" y="740.28" class="st3">Office Manager</text>			</g>
		</g>
		<g id="shape30-73" transform="translate(253.125,-573.192)">
			<title>Member.30</title>
			<desc>-employeeID</desc>
			<rect x="0" y="831.184" width="175.5" height="12.0036" class="st4"/>
			<rect x="0" y="831.184" width="175.5" height="12.0036" class="st5"/>
			<text x="9" y="840.19" class="st6">-employeeID</text>		</g>
		<g id="shape31-77" transform="translate(253.125,-570.942)">
			<title>Separator.31</title>
			<path d="M0 842.06 L175.5 842.06 L0 842.06 Z" class="st8"/>
			<path d="M0 842.06 L175.5 842.06" class="st9"/>
		</g>
		<g id="shape32-80" transform="translate(253.125,-498.938)">
			<title>Member.32</title>
			<desc>+maintainCustomers() +maintainEmployees() +maintainContractor...</desc>
			<rect x="0" y="771.184" width="175.5" height="72.0038" class="st4"/>
			<rect x="0" y="771.184" width="175.5" height="72.0038" class="st5"/>
			<text x="9" y="780.19" class="st6">+maintainCustomers()<tspan x="9" dy="1.2em" class="st7">+</tspan>maintainEmployees() <tspan
						x="9" dy="1.2em" class="st7">+</tspan>maintainContractors() <tspan x="9" dy="1.2em" class="st7">+</tspan>viewEmployeeSchedule()<tspan
						x="9" dy="1.2em" class="st7">+</tspan>viewEquipmentRented() <tspan x="9" dy="1.2em" class="st7">+</tspan>viewRentalHistory()</text>		</g>
		<g id="group53-89" transform="translate(19.125,-394.684)">
			<title>Class.53</title>
			<desc>Contractor</desc>
			<g id="shape54-90">
				<title>Sheet.54</title>
				<path d="M0 843.19 L180 843.19 L180 718.68 L0 718.68 L0 843.19 Z" class="st1"/>
			</g>
			<g id="shape55-92" transform="translate(0,-124.504)">
				<title>Sheet.55</title>
				<path d="M0 843.19 L180 843.19 L180 811.69 L0 811.69 L0 843.19 Z" class="st2"/>
			</g>
			<g id="shape57-94" transform="translate(171,-156.004)">
				<title>Sheet.57</title>
				<desc>parameter</desc>
			</g>
			<g id="shape53-95">
				<text x="4" y="706.53" class="st3">Contractor</text>			</g>
		</g>
		<g id="shape58-97" transform="translate(21.375,-396.934)">
			<title>Member.58</title>
			<desc>-contractorID -contractorName -contractorAddress -contractorS...</desc>
			<rect x="0" y="723.184" width="175.5" height="120.004" class="st4"/>
			<rect x="0" y="723.184" width="175.5" height="120.004" class="st5"/>
			<text x="9" y="732.19" class="st6">-contractorID <tspan x="9" dy="1.2em" class="st7">-</tspan>contractorName <tspan
						x="9" dy="1.2em" class="st7">-</tspan>contractorAddress <tspan x="9" dy="1.2em" class="st7">-</tspan>contractorState <tspan
						x="9" dy="1.2em" class="st7">-</tspan>contractorZip <tspan x="9" dy="1.2em" class="st7">-</tspan>contractorPhone <tspan
						x="9" dy="1.2em" class="st7">-</tspan>contractorEmail <tspan x="9" dy="1.2em" class="st7">-</tspan>contractorSkills <tspan
						x="9" dy="1.2em" class="st7">-</tspan>contractorOrganization <tspan x="9" dy="1.2em" class="st7">-</tspan>contractorComments</text>		</g>
		<g id="group66-110" transform="translate(250.875,-695.816)">
			<title>Inheritance.66</title>
			<g id="shape66-111">
				<path d="M0 843.19 L-35.95 843.19 L-35.95 876.94 L-41.94 876.94" class="st10"/>
			</g>
		</g>
		<g id="group71-117" transform="translate(214.875,-662.067)">
			<title>Association</title>
			<g id="shape71-118">
				<path d="M0 843.19 L0 947.44 L36 947.44" class="st12"/>
			</g>
		</g>
		<g id="group77-121" transform="translate(18.75,-185.82)">
			<title>Class.77</title>
			<desc>Customer</desc>
			<g id="shape78-122">
				<title>Sheet.78</title>
				<path d="M0 843.19 L180 843.19 L180 680.43 L0 680.43 L0 843.19 Z" class="st1"/>
			</g>
			<g id="shape79-124" transform="translate(0,-162.758)">
				<title>Sheet.79</title>
				<path d="M0 843.19 L180 843.19 L180 811.69 L0 811.69 L0 843.19 Z" class="st2"/>
			</g>
			<g id="shape81-126" transform="translate(171,-194.258)">
				<title>Sheet.81</title>
				<desc>parameter</desc>
			</g>
			<g id="shape77-127">
				<text x="4" y="668.28" class="st3">Customer</text>			</g>
		</g>
		<g id="shape82-129" transform="translate(21,-238.324)">
			<title>Member.82</title>
			<desc>-customerID -customerName -customerAddress -customerCity -cus...</desc>
			<rect x="0" y="735.184" width="175.5" height="108.004" class="st4"/>
			<rect x="0" y="735.184" width="175.5" height="108.004" class="st5"/>
			<text x="9" y="744.19" class="st6">-customerID <tspan x="9" dy="1.2em" class="st7">-</tspan>customerName <tspan x="9"
						dy="1.2em" class="st7">-</tspan>customerAddress <tspan x="9" dy="1.2em" class="st7">-</tspan>customerCity <tspan
						x="9" dy="1.2em" class="st7">-</tspan>customerState <tspan x="9" dy="1.2em" class="st7">-</tspan>customerZip <tspan
						x="9" dy="1.2em" class="st7">-</tspan>customerPhone <tspan x="9" dy="1.2em" class="st7">-</tspan>customerEmail <tspan
						x="9" dy="1.2em" class="st7">-</tspan>customerCompanyName</text>		</g>
		<g id="shape83-141" transform="translate(21,-236.074)">
			<title>Separator.83</title>
			<path d="M0 842.06 L175.5 842.06 L0 842.06 Z" class="st8"/>
			<path d="M0 842.06 L175.5 842.06" class="st9"/>
		</g>
		<g id="shape84-144" transform="translate(21,-188.07)">
			<title>Member.84</title>
			<desc>+requestConsultation() +requestInstallation() +rentEquipment(...</desc>
			<rect x="0" y="795.184" width="175.5" height="48.0037" class="st4"/>
			<rect x="0" y="795.184" width="175.5" height="48.0037" class="st5"/>
			<text x="9" y="804.19" class="st6">+requestConsultation() <tspan x="9" dy="1.2em" class="st7">+</tspan>requestInstallation() <tspan
						x="9" dy="1.2em" class="st7">+</tspan>rentEquipment() <tspan x="9" dy="1.2em" class="st7">+</tspan>buyEquipment()</text>		</g>
		<g id="group85-151" transform="translate(309.562,-18.375)">
			<title>Class.85</title>
			<desc>Equipment</desc>
			<g id="shape86-152">
				<title>Sheet.86</title>
				<path d="M0 843.19 L180 843.19 L180 754.68 L0 754.68 L0 843.19 Z" class="st1"/>
			</g>
			<g id="shape87-154" transform="translate(0,-88.5039)">
				<title>Sheet.87</title>
				<path d="M0 843.19 L180 843.19 L180 811.69 L0 811.69 L0 843.19 Z" class="st2"/>
			</g>
			<g id="shape89-156" transform="translate(171,-120.004)">
				<title>Sheet.89</title>
				<desc>parameter</desc>
			</g>
			<g id="shape85-157">
				<text x="4" y="742.53" class="st3">Equipment</text>			</g>
		</g>
		<g id="shape90-159" transform="translate(311.812,-20.625)">
			<title>Member.90</title>
			<desc>-equipmentID -equipmentType -equipmentRentalCost -equipmentBu...</desc>
			<rect x="0" y="759.184" width="175.5" height="84.0039" class="st4"/>
			<rect x="0" y="759.184" width="175.5" height="84.0039" class="st5"/>
			<text x="9" y="768.19" class="st6">-equipmentID <tspan x="9" dy="1.2em" class="st7">-</tspan>equipmentType <tspan x="9"
						dy="1.2em" class="st7">-</tspan>equipmentRentalCost <tspan x="9" dy="1.2em" class="st7">-</tspan>equipmentBuyCost <tspan
						x="9" dy="1.2em" class="st7">-</tspan>equipmentMaitenanceDate <tspan x="9" dy="1.2em" class="st7">-</tspan>equipmentCondition <tspan
						x="9" dy="1.2em" class="st7">-</tspan>equipmentComments</text>		</g>
		<g id="group101-169" transform="translate(289.125,-280.677)">
			<title>Class.101</title>
			<desc>Invoice</desc>
			<g id="shape102-170">
				<title>Sheet.102</title>
				<path d="M0 843.19 L180 843.19 L180 778.68 L0 778.68 L0 843.19 Z" class="st1"/>
			</g>
			<g id="shape103-172" transform="translate(0,-64.5038)">
				<title>Sheet.103</title>
				<path d="M0 843.19 L180 843.19 L180 811.69 L0 811.69 L0 843.19 Z" class="st2"/>
			</g>
			<g id="shape105-174" transform="translate(171,-96.0038)">
				<title>Sheet.105</title>
				<desc>parameter</desc>
			</g>
			<g id="shape101-175">
				<text x="4" y="766.53" class="st3">Invoice</text>			</g>
		</g>
		<g id="shape106-177" transform="translate(291.375,-282.927)">
			<title>Member.106</title>
			<desc>-invoiceID -paymentMethod -invoiceDate -paymentDate -paymentM...</desc>
			<rect x="0" y="783.184" width="175.5" height="60.0038" class="st4"/>
			<rect x="0" y="783.184" width="175.5" height="60.0038" class="st5"/>
			<text x="9" y="792.19" class="st6">-invoiceID <tspan x="9" dy="1.2em" class="st7">-</tspan>paymentMethod <tspan x="9"
						dy="1.2em" class="st7">-</tspan>invoiceDate <tspan x="9" dy="1.2em" class="st7">-</tspan>paymentDate <tspan
						x="9" dy="1.2em" class="st7">-</tspan>paymentMethod</text>		</g>
		<g id="group124-185" transform="translate(559.125,-645.19)">
			<title>Class.124</title>
			<desc>Installation</desc>
			<g id="shape125-186">
				<title>Sheet.125</title>
				<path d="M0 843.19 L180 843.19 L180 766.68 L0 766.68 L0 843.19 Z" class="st1"/>
			</g>
			<g id="shape126-188" transform="translate(0,-76.5038)">
				<title>Sheet.126</title>
				<path d="M0 843.19 L180 843.19 L180 811.69 L0 811.69 L0 843.19 Z" class="st2"/>
			</g>
			<g id="shape128-190" transform="translate(171,-108.004)">
				<title>Sheet.128</title>
				<desc>parameter</desc>
			</g>
			<g id="shape124-191">
				<text x="4" y="754.53" class="st3">Installation</text>			</g>
		</g>
		<g id="shape129-193" transform="translate(561.375,-647.44)">
			<title>Member.129</title>
			<desc>-installationID -employeeID -installationStartDate -installat...</desc>
			<rect x="0" y="771.184" width="175.5" height="72.0038" class="st4"/>
			<rect x="0" y="771.184" width="175.5" height="72.0038" class="st5"/>
			<text x="9" y="780.19" class="st6">-installationID <tspan x="9" dy="1.2em" class="st7">-</tspan>employeeID <tspan x="9"
						dy="1.2em" class="st7">-</tspan>installationStartDate <tspan x="9" dy="1.2em" class="st7">-</tspan>installationEndDate <tspan
						x="9" dy="1.2em" class="st7">installationCost </tspan><tspan x="9" dy="1.2em" class="st7">-</tspan>installationComments</text>		</g>
		<g id="group132-202" transform="translate(18.75,-29.4411)">
			<title>Class.132</title>
			<desc>Rental</desc>
			<g id="shape133-203">
				<title>Sheet.133</title>
				<path d="M0 843.19 L180 843.19 L180 778.68 L0 778.68 L0 843.19 Z" class="st1"/>
			</g>
			<g id="shape134-205" transform="translate(0,-64.5038)">
				<title>Sheet.134</title>
				<path d="M0 843.19 L180 843.19 L180 811.69 L0 811.69 L0 843.19 Z" class="st2"/>
			</g>
			<g id="shape136-207" transform="translate(171,-96.0038)">
				<title>Sheet.136</title>
				<desc>parameter</desc>
			</g>
			<g id="shape132-208">
				<text x="4" y="766.53" class="st3">Rental</text>			</g>
		</g>
		<g id="shape137-210" transform="translate(21,-31.6911)">
			<title>Member.137</title>
			<desc>-rentalID -rentalCost -rentalStartDate -rentalEndDate -comments</desc>
			<rect x="0" y="783.184" width="175.5" height="60.0038" class="st4"/>
			<rect x="0" y="783.184" width="175.5" height="60.0038" class="st5"/>
			<text x="9" y="792.19" class="st6">-rentalID <tspan x="9" dy="1.2em" class="st7">-</tspan>rentalCost <tspan x="9"
						dy="1.2em" class="st7">-</tspan>rentalStartDate <tspan x="9" dy="1.2em" class="st7">-</tspan>rentalEndDate <tspan
						x="9" dy="1.2em" class="st7">-</tspan>comments</text>		</g>
		<g id="group150-218" transform="translate(198.75,-282.949)">
			<title>Association.150</title>
			<desc>Recieves</desc>
			<g id="shape152-219" transform="translate(7.13274,14.6947)">
				<title>Sheet.152</title>
				<desc>0..*</desc>
				<rect x="0.906097" y="833.586" width="12.0784" height="9.59985" class="st13"/>
				<text x="0.91" y="840.79" class="st14">0..*</text>			</g>
			<g id="shape154-222" transform="translate(77.3753,-31.0349)">
				<title>Sheet.154</title>
				<desc>1</desc>
				<rect x="0.906097" y="833.586" width="4.05478" height="9.59985" class="st13"/>
				<text x="0.91" y="840.79" class="st14">1</text>			</g>
			<g id="shape150-225">
				<path d="M0 843.19 L42 843.19 L42 797.46 L90.37 797.46" class="st12"/>
				<rect x="24.346" y="811.135" width="35.3081" height="12.0001" class="st13"/>
				<text x="24.35" y="820.14" class="st6">Recieves</text>			</g>
		</g>
		<g id="group165-230" transform="translate(430.875,-688.504)">
			<title>Association.165</title>
			<desc>Performs</desc>
			<g id="shape166-231" transform="translate(7.06554,-12.4037)">
				<title>Sheet.166</title>
				<desc>0..*</desc>
				<rect x="0.906097" y="833.586" width="12.0784" height="9.59985" class="st13"/>
				<text x="0.91" y="840.79" class="st14">0..*</text>			</g>
			<g id="shape168-234" transform="translate(117.292,5.98159)">
				<title>Sheet.168</title>
				<desc>1</desc>
				<rect x="0.906097" y="833.586" width="4.05478" height="9.59985" class="st13"/>
				<text x="0.91" y="840.79" class="st14">1</text>			</g>
			<g id="shape165-237">
				<path d="M0 835.88 L128.25 835.88 L128.25 832.5" class="st12"/>
				<rect x="47.1431" y="829.875" width="37.339" height="12.0001" class="st13"/>
				<text x="47.14" y="838.88" class="st6">Performs</text>			</g>
		</g>
		<g id="group170-242" transform="translate(557.75,-476.188)">
			<title>Class.170</title>
			<desc>Consultation</desc>
			<g id="shape171-243">
				<title>Sheet.171</title>
				<path d="M0 843.19 L180 843.19 L180 778.68 L0 778.68 L0 843.19 Z" class="st1"/>
			</g>
			<g id="shape172-245" transform="translate(0,-64.5038)">
				<title>Sheet.172</title>
				<path d="M0 843.19 L180 843.19 L180 811.69 L0 811.69 L0 843.19 Z" class="st2"/>
			</g>
			<g id="shape174-247" transform="translate(171,-96.0038)">
				<title>Sheet.174</title>
				<desc>parameter</desc>
			</g>
			<g id="shape170-248">
				<text x="4" y="766.53" class="st3">Consultation</text>			</g>
		</g>
		<g id="shape175-250" transform="translate(560,-478.437)">
			<title>Member.175</title>
			<desc>-consultationID -employeeID -consultationDate -consultationCo...</desc>
			<rect x="0" y="783.184" width="175.5" height="60.0038" class="st4"/>
			<rect x="0" y="783.184" width="175.5" height="60.0038" class="st5"/>
			<text x="9" y="792.19" class="st6">-consultationID <tspan x="9" dy="1.2em" class="st7">-</tspan>employeeID <tspan x="9"
						dy="1.2em" class="st7">-</tspan>consultationDate <tspan x="9" dy="1.2em" class="st7">-</tspan>consultationCost <tspan
						x="9" dy="1.2em" class="st7">-</tspan>consultationComments</text>		</g>
		<g id="group178-258" transform="translate(431.273,-660.023)">
			<title>Association.178</title>
			<desc>Informs</desc>
			<g id="shape179-259" transform="translate(9.02583,-5.09117)">
				<title>Sheet.179</title>
				<desc>0..*</desc>
				<rect x="0.906097" y="833.586" width="12.0784" height="9.59985" class="st13"/>
				<text x="0.91" y="840.79" class="st14">0..*</text>			</g>
			<g id="shape181-262" transform="translate(111.584,130.743)">
				<title>Sheet.181</title>
				<desc>1</desc>
				<rect x="0.906097" y="833.586" width="4.05478" height="9.59985" class="st13"/>
				<text x="0.91" y="840.79" class="st14">1</text>			</g>
			<g id="shape178-265">
				<path d="M0 843.19 L27.73 843.19 L27.73 979.02 L126.48 979.02" class="st12"/>
				<rect x="11.9845" y="940.616" width="31.4843" height="12.0001" class="st13"/>
				<text x="11.98" y="949.62" class="st6">Informs</text>			</g>
		</g>
		<g id="group183-270" transform="translate(199.125,-472.686)">
			<title>Association.183</title>
			<desc>Hires</desc>
			<g id="shape184-271" transform="translate(7.06979,-5.09117)">
				<title>Sheet.184</title>
				<desc>1</desc>
				<rect x="0.906097" y="833.586" width="4.05478" height="9.59985" class="st13"/>
				<text x="0.91" y="840.79" class="st14">1</text>			</g>
			<g id="shape186-274" transform="translate(89.2057,-7.04711)">
				<title>Sheet.186</title>
				<desc>0..*</desc>
				<rect x="0.906097" y="833.586" width="12.0784" height="9.59985" class="st13"/>
				<text x="0.91" y="840.79" class="st14">0..*</text>			</g>
			<g id="shape183-277">
				<path d="M0 843.19 L108.19 843.19 L108.19 819.47" class="st12"/>
				<rect x="55.5045" y="837.188" width="20.8987" height="12.0001" class="st13"/>
				<text x="55.5" y="846.19" class="st6">Hires</text>			</g>
		</g>
		<g id="group188-282" transform="translate(198.75,-86.3465)">
			<title>Association.188</title>
			<desc>Rents</desc>
			<g id="shape190-283" transform="translate(6.74731,23.61)">
				<title>Sheet.190</title>
				<desc>0..*</desc>
				<rect x="0.906097" y="833.586" width="12.0784" height="9.59985" class="st13"/>
				<text x="0.91" y="840.79" class="st14">0..*</text>			</g>
			<g id="shape192-286" transform="translate(98.368,23.7795)">
				<title>Sheet.192</title>
				<desc>1</desc>
				<rect x="0.906097" y="833.586" width="4.05478" height="9.59985" class="st13"/>
				<text x="0.91" y="840.79" class="st14">1</text>			</g>
			<g id="shape188-289">
				<path d="M0 852.09 L111 852.28" class="st12"/>
				<rect x="44.0398" y="846.188" width="22.9202" height="12.0001" class="st13"/>
				<text x="44.04" y="855.19" class="st6">Rents</text>			</g>
		</g>
		<g id="group193-294" transform="translate(349.781,-496.125)">
			<title>Association.193</title>
			<desc>Sends</desc>
			<g id="shape194-295" transform="translate(13.8423,16.4637)">
				<title>Sheet.194</title>
				<desc>1</desc>
				<rect x="0.906097" y="833.586" width="4.05478" height="9.59985" class="st13"/>
				<text x="0.91" y="840.79" class="st14">1</text>			</g>
			<g id="shape196-298" transform="translate(14.34,112.623)">
				<title>Sheet.196</title>
				<desc>1</desc>
				<rect x="0.906097" y="833.586" width="4.05478" height="9.59985" class="st13"/>
				<text x="0.91" y="840.79" class="st14">1</text>			</g>
			<g id="shape193-301">
				<path d="M8.72 843.19 L9.28 962.72" class="st12"/>
				<rect x="-2.99466" y="896.953" width="23.9895" height="12.0001" class="st13"/>
				<text x="-2.99" y="905.95" class="st6">Sends</text>			</g>
		</g>
		<g id="group198-306" transform="translate(99.75,-185.82)">
			<title>Association.198</title>
			<desc>Rents</desc>
			<g id="shape200-307" transform="translate(-10.0521,15.6004)">
				<title>Sheet.200</title>
				<desc>0..1</desc>
				<rect x="0.906097" y="833.586" width="12.1487" height="9.59985" class="st13"/>
				<text x="0.91" y="840.79" class="st14">0..1</text>			</g>
			<g id="shape202-310" transform="translate(-1.95817,54.3782)">
				<title>Sheet.202</title>
				<desc>1</desc>
				<rect x="0.906097" y="833.586" width="4.05478" height="9.59985" class="st13"/>
				<text x="0.91" y="840.79" class="st14">1</text>			</g>
			<g id="shape198-313">
				<path d="M9 843.19 L9 903.56" class="st12"/>
				<rect x="-2.46017" y="867.375" width="22.9202" height="12.0001" class="st13"/>
				<text x="-2.46" y="876.38" class="st6">Rents</text>			</g>
		</g>
		<g id="group203-318" transform="translate(99.375,-776.809)">
			<title>Inheritance</title>
			<g id="shape203-319">
				<path d="M9 843.19 L9 856.67" class="st10"/>
			</g>
		</g>
	</g>
</svg>
