<?xml version="1.0" encoding="UTF-8" standalone="no"?>
<!DOCTYPE svg PUBLIC "-//W3C//DTD SVG 1.1//EN" "http://www.w3.org/Graphics/SVG/1.1/DTD/svg11.dtd">
<!-- Generated by Microsoft Visio, SVG Export 2017-05-10 - Final Project Use Case Model.svg Page-1 -->
<svg xmlns="http://www.w3.org/2000/svg" xmlns:xlink="http://www.w3.org/1999/xlink" xmlns:ev="http://www.w3.org/2001/xml-events"
		width="11in" height="8.5in" viewBox="0 0 792 612" xml:space="preserve" color-interpolation-filters="sRGB" class="st9">
	<style type="text/css">
	<![CDATA[
		.st1 {fill:#73ae42;stroke:#ffffff;stroke-linecap:round;stroke-linejoin:round;stroke-width:0.5}
		.st2 {fill:#73ae42;font-family:Calibri;font-size:1.00001em}
		.st3 {marker-end:url(#mrkr14-15);stroke:#5592c9;stroke-linecap:round;stroke-linejoin:round;stroke-width:0.5}
		.st4 {fill:#5592c9;fill-opacity:1;stroke:#5592c9;stroke-opacity:1;stroke-width:0.16556291390728}
		.st5 {fill:#5b9bd5;stroke:#ffffff;stroke-linecap:round;stroke-linejoin:round;stroke-width:0.5}
		.st6 {fill:#ffffff;font-family:Calibri;font-size:1.00001em}
		.st7 {stroke:#5592c9;stroke-linecap:round;stroke-linejoin:round;stroke-width:0.5}
		.st8 {marker-end:url(#mrkr14-112);stroke:#5592c9;stroke-linecap:round;stroke-linejoin:round;stroke-width:0.5}
		.st9 {fill:none;fill-rule:evenodd;font-size:12px;overflow:visible;stroke-linecap:square;stroke-miterlimit:3}
	]]>
	</style>

	<defs id="Markers">
		<g id="lend14">
			<path d="M 3 -1 L 0 0 L 3 1 L 3 -1 " style="stroke-linecap:round;stroke-linejoin:round;fill:none"/>
		</g>
		<marker id="mrkr14-15" class="st4" refX="-18.12" orient="auto" markerUnits="strokeWidth" overflow="visible">
			<use xlink:href="#lend14" transform="scale(-6.04,-6.04) "/>
		</marker>
		<marker id="mrkr14-112" class="st4" refX="-17.4" orient="auto" markerUnits="strokeWidth" overflow="visible">
			<use xlink:href="#lend14" transform="scale(-6.04,-6.04) "/>
		</marker>
	</defs>
	<g>
		<title>Page-1</title>
		<g id="shape1-1" transform="translate(63,-207)">
			<title>Actor</title>
			<desc>Employee</desc>
			<path d="M7.2 612 L7.2 576 L7.2 590.4 L0 590.4 L0 561.6 L3.6 558 L32.4 558 L36 561.6 L36 590.4 L28.8 590.4 L28.8 576
						 L28.8 612 L18 612 L18 583.2 L18 612 L7.2 612 ZM25.2 547.2 A7.2 7.2 -180 1 0 10.8 547.2 A7.2 7.2 -180 1 0
						 25.2 547.2 Z" class="st1"/>
			<text x="-6.1" y="626.8" class="st2">Employee</text>		</g>
		<g id="shape2-4" transform="translate(63,-63)">
			<title>Actor.2</title>
			<desc>Manager</desc>
			<path d="M7.2 612 L7.2 576 L7.2 590.4 L0 590.4 L0 561.6 L3.6 558 L32.4 558 L36 561.6 L36 590.4 L28.8 590.4 L28.8 576
						 L28.8 612 L18 612 L18 583.2 L18 612 L7.2 612 ZM25.2 547.2 A7.2 7.2 -180 1 0 10.8 547.2 A7.2 7.2 -180 1 0
						 25.2 547.2 Z" class="st1"/>
			<text x="-3.93" y="626.8" class="st2">Manager</text>		</g>
		<g id="shape5-7" transform="translate(63,-369)">
			<title>Actor.5</title>
			<desc>Technician</desc>
			<path d="M7.2 612 L7.2 576 L7.2 590.4 L0 590.4 L0 561.6 L3.6 558 L32.4 558 L36 561.6 L36 590.4 L28.8 590.4 L28.8 576
						 L28.8 612 L18 612 L18 583.2 L18 612 L7.2 612 ZM25.2 547.2 A7.2 7.2 -180 1 0 10.8 547.2 A7.2 7.2 -180 1 0
						 25.2 547.2 Z" class="st1"/>
			<text x="-8.07" y="626.8" class="st2">Technician</text>		</g>
		<g id="shape7-10" transform="translate(72,-135)">
			<title>Generalization</title>
			<path d="M9 612 L9 549.06" class="st3"/>
		</g>
		<g id="shape8-16" transform="translate(72,-369)">
			<title>Generalization.8</title>
			<path d="M9 612 L9 692.94" class="st3"/>
		</g>
		<g id="shape9-21" transform="translate(72,-135)">
			<title>Generalization.9</title>
			<path d="M9 612 L9 549.06" class="st3"/>
		</g>
		<g id="shape10-26" transform="translate(252,-369)">
			<title>Use Case</title>
			<desc>Generate proposal</desc>
			<ellipse cx="54" cy="594" rx="54" ry="18" class="st5"/>
			<text x="8.45" y="597.6" class="st6">Generate proposal</text>		</g>
		<g id="shape11-29" transform="translate(252,-315)">
			<title>Use Case.11</title>
			<desc>Generate order</desc>
			<ellipse cx="54" cy="594" rx="54" ry="18" class="st5"/>
			<text x="16.29" y="597.6" class="st6">Generate order</text>		</g>
		<g id="shape12-32" transform="translate(252,-261)">
			<title>Use Case.12</title>
			<desc>Generate invoice</desc>
			<ellipse cx="54" cy="594" rx="54" ry="18" class="st5"/>
			<text x="12.47" y="597.6" class="st6">Generate invoice</text>		</g>
		<g id="shape13-35" transform="translate(242.736,-108)">
			<title>Use Case.13</title>
			<desc>View rented equipment</desc>
			<ellipse cx="63.2643" cy="594" rx="63.2643" ry="18" class="st5"/>
			<text x="5.36" y="597.6" class="st6">View rented equipment</text>		</g>
		<g id="shape14-38" transform="translate(99,-101.082)">
			<title>Dynamic connector</title>
			<path d="M0 611.92 L148.71 594.08" class="st7"/>
		</g>
		<g id="shape18-41" transform="translate(99,-254.52)">
			<title>Dynamic connector.18</title>
			<path d="M0 612 L182.06 495.48" class="st7"/>
		</g>
		<g id="shape19-44" transform="translate(99,-250.2)">
			<title>Dynamic connector.19</title>
			<path d="M0 612 L172.43 543.03" class="st7"/>
		</g>
		<g id="shape20-47" transform="translate(99,-245.88)">
			<title>Dynamic connector.20</title>
			<path d="M0 612 L158.32 586.67" class="st7"/>
		</g>
		<g id="shape21-50" transform="translate(252,-63)">
			<title>Use Case.21</title>
			<desc>View rental history</desc>
			<ellipse cx="54" cy="594" rx="54" ry="18" class="st5"/>
			<text x="7.88" y="597.6" class="st6">View rental history</text>		</g>
		<g id="shape22-53" transform="translate(99,-100.38)">
			<title>Dynamic connector.22</title>
			<path d="M0 614.82 L154.49 627.18" class="st7"/>
		</g>
		<g id="shape24-56" transform="translate(99,-104.76)">
			<title>Dynamic connector.24</title>
			<path d="M0 612 L163.57 559.66" class="st7"/>
		</g>
		<g id="shape23-59" transform="translate(237.679,-153)">
			<title>Use Case.23</title>
			<desc>View employee schedules</desc>
			<ellipse cx="68.3208" cy="594" rx="68.3208" ry="18" class="st5"/>
			<text x="5.36" y="597.6" class="st6">View employee schedules</text>		</g>
		<g id="shape25-62" transform="translate(99,-237.24)">
			<title>Dynamic connector.25</title>
			<path d="M0 612 L142.78 657.69 A3 3 0 0 1 148.49 659.52 L163.57 664.34" class="st7"/>
		</g>
		<g id="shape26-65" transform="translate(500.849,-108)">
			<title>Actor.26</title>
			<desc>Temporary Worker</desc>
			<path d="M7.2 612 L7.2 576 L7.2 590.4 L0 590.4 L0 561.6 L3.6 558 L32.4 558 L36 561.6 L36 590.4 L28.8 590.4 L28.8 576
						 L28.8 612 L18 612 L18 583.2 L18 612 L7.2 612 ZM25.2 547.2 A7.2 7.2 -180 1 0 10.8 547.2 A7.2 7.2 -180 1 0
						 25.2 547.2 Z" class="st1"/>
			<text x="-28.55" y="626.8" class="st2">Temporary Worker</text>		</g>
		<g id="shape27-68" transform="translate(234.178,-18)">
			<title>Use Case.27</title>
			<desc>View temporary worker list</desc>
			<ellipse cx="71.8215" cy="594" rx="71.8215" ry="18" class="st5"/>
			<text x="5.36" y="597.6" class="st6">View temporary worker list</text>		</g>
		<g id="shape28-71" transform="translate(99,-93.96)">
			<title>Dynamic connector.28</title>
			<path d="M0 612 L159.1 656.55" class="st7"/>
		</g>
		<g id="shape29-74" transform="translate(337.807,-52.1387)">
			<title>Dynamic connector.29</title>
			<path d="M0 612 L163.04 529.27" class="st7"/>
		</g>
		<g id="shape30-77" transform="translate(252,-207)">
			<title>Use Case.30</title>
			<desc>Track hours worked</desc>
			<ellipse cx="54" cy="594" rx="54" ry="18" class="st5"/>
			<text x="5.82" y="597.6" class="st6">Track hours worked</text>		</g>
		<g id="shape31-80" transform="translate(278.38,-209.533)">
			<title>Dynamic connector.31</title>
			<path d="M0 612 L-179.38 712.45" class="st7"/>
		</g>
		<g id="shape32-83" transform="translate(253.491,-226.38)">
			<title>Dynamic connector.32</title>
			<path d="M0 609.18 L-154.49 596.82" class="st7"/>
		</g>
		<g id="shape33-86" transform="translate(341.58,-211.46)">
			<title>Dynamic connector.33</title>
			<path d="M0 612 L159.27 672.61" class="st7"/>
		</g>
		<g id="shape36-89" transform="translate(99,-407.88)">
			<title>Dynamic connector.36</title>
			<path d="M0 612 L132.87 590.74" class="st7"/>
		</g>
		<g id="shape35-92" transform="translate(207.439,-423)">
			<title>Use Case.35</title>
			<desc>Evalute Contract Worker performance</desc>
			<ellipse cx="98.5609" cy="594" rx="98.5609" ry="18" class="st5"/>
			<text x="5.36" y="597.6" class="st6">Evalute Contract Worker performance</text>		</g>
		<g id="shape37-95" transform="translate(387.201,-430.798)">
			<title>Dynamic connector.37</title>
			<path d="M0 612 C71.8 655.8 94.48 685.28 108.01 719.33 C121.33 752.85 125.8 790.8 130.01 862.99" class="st7"/>
		</g>
		<g id="shape38-98" transform="translate(234.952,-477)">
			<title>Use Case.38</title>
			<desc>Track equipment problems</desc>
			<ellipse cx="71.0483" cy="594" rx="71.0483" ry="18" class="st5"/>
			<text x="5.36" y="597.6" class="st6">Track equipment problems</text>		</g>
		<g id="shape41-101" transform="translate(99,-412.2)">
			<title>Dynamic connector.41</title>
			<path d="M0 612 L168.98 544.41" class="st7"/>
		</g>
		<g id="shape42-104" transform="translate(63,-495)">
			<title>Actor.42</title>
			<desc>Executive</desc>
			<path d="M7.2 612 L7.2 576 L7.2 590.4 L0 590.4 L0 561.6 L3.6 558 L32.4 558 L36 561.6 L36 590.4 L28.8 590.4 L28.8 576
						 L28.8 612 L18 612 L18 583.2 L18 612 L7.2 612 ZM25.2 547.2 A7.2 7.2 -180 1 0 10.8 547.2 A7.2 7.2 -180 1 0
						 25.2 547.2 Z" class="st1"/>
			<text x="-5.29" y="626.8" class="st2">Executive</text>		</g>
		<g id="shape43-107" transform="translate(69.1876,-495)">
			<title>Generalization.43</title>
			<path d="M9 612 C-57.88 594.6 -43.29 745.39 3.99 821.02 L4.19 821.32" class="st8"/>
		</g>
		<g id="shape44-113" transform="translate(252,-531)">
			<title>Use Case.44</title>
			<desc>Generate report</desc>
			<ellipse cx="54" cy="594" rx="54" ry="18" class="st5"/>
			<text x="14.28" y="597.6" class="st6">Generate report</text>		</g>
		<g id="shape45-116" transform="translate(99,-529.62)">
			<title>Association</title>
			<path d="M0 609.18 L154.49 596.82" class="st7"/>
		</g>
	</g>
</svg>
