<?xml version="1.0" encoding="UTF-8" standalone="no"?>
<!DOCTYPE svg PUBLIC "-//W3C//DTD SVG 1.1//EN" "http://www.w3.org/Graphics/SVG/1.1/DTD/svg11.dtd">
<!-- Generated by Microsoft Visio, SVG Export 2017-05-10 - Final Project Use Case Model.svg Page-1 -->
<svg xmlns="http://www.w3.org/2000/svg" xmlns:xlink="http://www.w3.org/1999/xlink" xmlns:ev="http://www.w3.org/2001/xml-events"
		width="8.24218in" height="8.50694in" viewBox="0 0 593.437 612.5" xml:space="preserve" color-interpolation-filters="sRGB"
		class="st9">
	<style type="text/css">
	<![CDATA[
		.st1 {fill:#73ae42;stroke:#ffffff;stroke-linecap:round;stroke-linejoin:round;stroke-width:0.5}
		.st2 {fill:#73ae42;font-family:Calibri;font-size:1.00001em}
		.st3 {marker-end:url(#mrkr14-15);stroke:#5592c9;stroke-linecap:round;stroke-linejoin:round;stroke-width:0.5}
		.st4 {fill:#5592c9;fill-opacity:1;stroke:#5592c9;stroke-opacity:1;stroke-width:0.16556291390728}
		.st5 {fill:#5b9bd5;stroke:#ffffff;stroke-linecap:round;stroke-linejoin:round;stroke-width:0.5}
		.st6 {fill:#ffffff;font-family:Calibri;font-size:1.00001em}
		.st7 {stroke:#5592c9;stroke-linecap:round;stroke-linejoin:round;stroke-width:0.5}
		.st8 {marker-end:url(#mrkr14-139);stroke:#5592c9;stroke-linecap:round;stroke-linejoin:round;stroke-width:0.5}
		.st9 {fill:none;fill-rule:evenodd;font-size:12px;overflow:visible;stroke-linecap:square;stroke-miterlimit:3}
	]]>
	</style>

	<defs id="Markers">
		<g id="lend14">
			<path d="M 3 -1 L 0 0 L 3 1 L 3 -1 " style="stroke-linecap:round;stroke-linejoin:round;fill:none"/>
		</g>
		<marker id="mrkr14-15" class="st4" refX="-18.12" orient="auto" markerUnits="strokeWidth" overflow="visible">
			<use xlink:href="#lend14" transform="scale(-6.04,-6.04) "/>
		</marker>
		<marker id="mrkr14-139" class="st4" refX="-17.4" orient="auto" markerUnits="strokeWidth" overflow="visible">
			<use xlink:href="#lend14" transform="scale(-6.04,-6.04) "/>
		</marker>
	</defs>
	<g>
		<title>Page-1</title>
		<g id="shape1-1" transform="translate(67.6825,-207.25)">
			<title>Actor</title>
			<desc>Employee</desc>
			<path d="M7.2 612.5 L7.2 576.5 L7.2 590.9 L0 590.9 L0 562.1 L3.6 558.5 L32.4 558.5 L36 562.1 L36 590.9 L28.8 590.9 L28.8
						 576.5 L28.8 612.5 L18 612.5 L18 583.7 L18 612.5 L7.2 612.5 ZM25.2 547.7 A7.2 7.2 -180 1 0 10.8 547.7 A7.2
						 7.2 -180 1 0 25.2 547.7 Z" class="st1"/>
			<text x="-6.1" y="627.3" class="st2">Employee</text>		</g>
		<g id="shape2-4" transform="translate(67.6825,-63.25)">
			<title>Actor.2</title>
			<desc>Manager</desc>
			<path d="M7.2 612.5 L7.2 576.5 L7.2 590.9 L0 590.9 L0 562.1 L3.6 558.5 L32.4 558.5 L36 562.1 L36 590.9 L28.8 590.9 L28.8
						 576.5 L28.8 612.5 L18 612.5 L18 583.7 L18 612.5 L7.2 612.5 ZM25.2 547.7 A7.2 7.2 -180 1 0 10.8 547.7 A7.2
						 7.2 -180 1 0 25.2 547.7 Z" class="st1"/>
			<text x="-3.93" y="627.3" class="st2">Manager</text>		</g>
		<g id="shape5-7" transform="translate(67.6825,-369.25)">
			<title>Actor.5</title>
			<desc>Technician</desc>
			<path d="M7.2 612.5 L7.2 576.5 L7.2 590.9 L0 590.9 L0 562.1 L3.6 558.5 L32.4 558.5 L36 562.1 L36 590.9 L28.8 590.9 L28.8
						 576.5 L28.8 612.5 L18 612.5 L18 583.7 L18 612.5 L7.2 612.5 ZM25.2 547.7 A7.2 7.2 -180 1 0 10.8 547.7 A7.2
						 7.2 -180 1 0 25.2 547.7 Z" class="st1"/>
			<text x="-8.07" y="627.3" class="st2">Technician</text>		</g>
		<g id="shape7-10" transform="translate(76.6825,-135.25)">
			<title>Generalization</title>
			<path d="M9 612.5 L9 549.56" class="st3"/>
		</g>
		<g id="shape8-16" transform="translate(76.6825,-369.25)">
			<title>Generalization.8</title>
			<path d="M9 612.5 L9 693.44" class="st3"/>
		</g>
		<g id="shape9-21" transform="translate(76.6825,-135.25)">
			<title>Generalization.9</title>
			<path d="M9 612.5 L9 549.56" class="st3"/>
		</g>
		<g id="shape10-26" transform="translate(256.683,-369.25)">
			<title>Use Case</title>
			<desc>Generate proposal</desc>
			<ellipse cx="54" cy="594.5" rx="54" ry="18" class="st5"/>
			<text x="8.45" y="598.1" class="st6">Generate proposal</text>		</g>
		<g id="shape11-29" transform="translate(256.683,-315.25)">
			<title>Use Case.11</title>
			<desc>Generate order</desc>
			<ellipse cx="54" cy="594.5" rx="54" ry="18" class="st5"/>
			<text x="16.29" y="598.1" class="st6">Generate order</text>		</g>
		<g id="shape12-32" transform="translate(256.683,-261.25)">
			<title>Use Case.12</title>
			<desc>Generate invoice</desc>
			<ellipse cx="54" cy="594.5" rx="54" ry="18" class="st5"/>
			<text x="12.47" y="598.1" class="st6">Generate invoice</text>		</g>
		<g id="shape13-35" transform="translate(247.418,-108.25)">
			<title>Use Case.13</title>
			<desc>View rented equipment</desc>
			<ellipse cx="63.2643" cy="594.5" rx="63.2643" ry="18" class="st5"/>
			<text x="5.36" y="598.1" class="st6">View rented equipment</text>		</g>
		<g id="shape14-38" transform="translate(103.683,-101.332)">
			<title>Dynamic connector</title>
			<path d="M0 612.42 L148.71 594.58" class="st7"/>
		</g>
		<g id="shape18-41" transform="translate(103.683,-254.77)">
			<title>Dynamic connector.18</title>
			<path d="M0 612.5 L182.06 495.98" class="st7"/>
		</g>
		<g id="shape19-44" transform="translate(103.683,-250.45)">
			<title>Dynamic connector.19</title>
			<path d="M0 612.5 L172.43 543.53" class="st7"/>
		</g>
		<g id="shape20-47" transform="translate(103.683,-246.13)">
			<title>Dynamic connector.20</title>
			<path d="M0 612.5 L158.32 587.17" class="st7"/>
		</g>
		<g id="shape21-50" transform="translate(256.683,-63.25)">
			<title>Use Case.21</title>
			<desc>View rental history</desc>
			<ellipse cx="54" cy="594.5" rx="54" ry="18" class="st5"/>
			<text x="7.88" y="598.1" class="st6">View rental history</text>		</g>
		<g id="shape22-53" transform="translate(103.683,-100.63)">
			<title>Dynamic connector.22</title>
			<path d="M0 615.32 L154.49 627.68" class="st7"/>
		</g>
		<g id="shape24-56" transform="translate(103.683,-105.01)">
			<title>Dynamic connector.24</title>
			<path d="M0 612.5 L163.57 560.16" class="st7"/>
		</g>
		<g id="shape23-59" transform="translate(242.362,-153.25)">
			<title>Use Case.23</title>
			<desc>View employee schedules</desc>
			<ellipse cx="68.3208" cy="594.5" rx="68.3208" ry="18" class="st5"/>
			<text x="5.36" y="598.1" class="st6">View employee schedules</text>		</g>
		<g id="shape25-62" transform="translate(103.683,-237.49)">
			<title>Dynamic connector.25</title>
			<path d="M0 612.5 L142.78 658.19 A3 3 0 0 1 148.49 660.02 L163.57 664.84" class="st7"/>
		</g>
		<g id="shape26-65" transform="translate(505.532,-108.25)">
			<title>Actor.26</title>
			<desc>Temporary Worker</desc>
			<path d="M7.2 612.5 L7.2 576.5 L7.2 590.9 L0 590.9 L0 562.1 L3.6 558.5 L32.4 558.5 L36 562.1 L36 590.9 L28.8 590.9 L28.8
						 576.5 L28.8 612.5 L18 612.5 L18 583.7 L18 612.5 L7.2 612.5 ZM25.2 547.7 A7.2 7.2 -180 1 0 10.8 547.7 A7.2
						 7.2 -180 1 0 25.2 547.7 Z" class="st1"/>
			<text x="-28.55" y="627.3" class="st2">Temporary Worker</text>		</g>
		<g id="shape27-68" transform="translate(238.861,-18.25)">
			<title>Use Case.27</title>
			<desc>View temporary worker list</desc>
			<ellipse cx="71.8215" cy="594.5" rx="71.8215" ry="18" class="st5"/>
			<text x="5.36" y="598.1" class="st6">View temporary worker list</text>		</g>
		<g id="shape28-71" transform="translate(103.683,-94.21)">
			<title>Dynamic connector.28</title>
			<path d="M0 612.5 L159.1 657.05" class="st7"/>
		</g>
		<g id="shape29-74" transform="translate(342.489,-52.3887)">
			<title>Dynamic connector.29</title>
			<path d="M0 612.5 L163.04 529.77" class="st7"/>
		</g>
		<g id="shape30-77" transform="translate(256.683,-207.25)">
			<title>Use Case.30</title>
			<desc>Track hours worked</desc>
			<ellipse cx="54" cy="594.5" rx="54" ry="18" class="st5"/>
			<text x="5.82" y="598.1" class="st6">Track hours worked</text>		</g>
		<g id="shape31-80" transform="translate(283.062,-209.783)">
			<title>Dynamic connector.31</title>
			<path d="M0 612.5 L-179.38 712.95" class="st7"/>
		</g>
		<g id="shape32-83" transform="translate(258.174,-226.63)">
			<title>Dynamic connector.32</title>
			<path d="M0 609.68 L-154.49 597.32" class="st7"/>
		</g>
		<g id="shape33-86" transform="translate(346.263,-211.71)">
			<title>Dynamic connector.33</title>
			<path d="M0 612.5 L159.27 673.11" class="st7"/>
		</g>
		<g id="shape36-89" transform="translate(103.683,-408.13)">
			<title>Dynamic connector.36</title>
			<path d="M0 612.5 L132.87 591.24" class="st7"/>
		</g>
		<g id="shape35-92" transform="translate(212.122,-423.25)">
			<title>Use Case.35</title>
			<desc>Evalute Contract Worker performance</desc>
			<ellipse cx="98.5609" cy="594.5" rx="98.5609" ry="18" class="st5"/>
			<text x="5.36" y="598.1" class="st6">Evalute Contract Worker performance</text>		</g>
		<g id="shape37-95" transform="translate(391.883,-431.048)">
			<title>Dynamic connector.37</title>
			<path d="M0 612.5 C71.8 656.3 94.48 685.78 108.01 719.83 C121.33 753.35 125.8 791.3 130.01 863.49" class="st7"/>
		</g>
		<g id="shape38-98" transform="translate(239.634,-468.25)">
			<title>Use Case.38</title>
			<desc>Track equipment problems</desc>
			<ellipse cx="71.0483" cy="594.5" rx="71.0483" ry="18" class="st5"/>
			<text x="5.36" y="598.1" class="st6">Track equipment problems</text>		</g>
		<g id="shape41-101" transform="translate(103.683,-411.73)">
			<title>Dynamic connector.41</title>
			<path d="M0 612.5 L166.11 552.7" class="st7"/>
		</g>
		<g id="shape42-104" transform="translate(67.6825,-495.25)">
			<title>Actor.42</title>
			<desc>Executive</desc>
			<path d="M7.2 612.5 L7.2 576.5 L7.2 590.9 L0 590.9 L0 562.1 L3.6 558.5 L32.4 558.5 L36 562.1 L36 590.9 L28.8 590.9 L28.8
						 576.5 L28.8 612.5 L18 612.5 L18 583.7 L18 612.5 L7.2 612.5 ZM25.2 547.7 A7.2 7.2 -180 1 0 10.8 547.7 A7.2
						 7.2 -180 1 0 25.2 547.7 Z" class="st1"/>
			<text x="-5.29" y="627.3" class="st2">Executive</text>		</g>
		<g id="shape44-107" transform="translate(256.683,-513.25)">
			<title>Use Case.44</title>
			<desc>Generate report</desc>
			<ellipse cx="54" cy="594.5" rx="54" ry="18" class="st5"/>
			<text x="14.28" y="598.1" class="st6">Generate report</text>		</g>
		<g id="shape45-110" transform="translate(103.683,-522.25)">
			<title>Association</title>
			<path d="M0 603.5 L153 603.5" class="st7"/>
		</g>
		<g id="shape46-113" transform="translate(256.683,-558.25)">
			<title>Use Case.46</title>
			<desc>Manage employees</desc>
			<ellipse cx="54" cy="594.5" rx="54" ry="18" class="st5"/>
			<text x="6.3" y="598.1" class="st6">Manage employees</text>		</g>
		<g id="shape47-116" transform="translate(103.683,-534.85)">
			<title>Association.47</title>
			<path d="M0 612.5 L160.7 580.36" class="st7"/>
		</g>
		<g id="shape48-119" transform="translate(505.532,-414)">
			<title>Actor.48</title>
			<desc>Customer</desc>
			<path d="M7.2 612.5 L7.2 576.5 L7.2 590.9 L0 590.9 L0 562.1 L3.6 558.5 L32.4 558.5 L36 562.1 L36 590.9 L28.8 590.9 L28.8
						 576.5 L28.8 612.5 L18 612.5 L18 583.7 L18 612.5 L7.2 612.5 ZM25.2 547.7 A7.2 7.2 -180 1 0 10.8 547.7 A7.2
						 7.2 -180 1 0 25.2 547.7 Z" class="st1"/>
			<text x="-5.74" y="627.3" class="st2">Customer</text>		</g>
		<g id="shape49-122" transform="translate(505.532,-444.693)">
			<title>Dynamic connector.49</title>
			<path d="M0 612.5 L-154.4 658.02" class="st7"/>
		</g>
		<g id="shape50-125" transform="translate(505.532,-440.127)">
			<title>Dynamic connector.50</title>
			<path d="M0 612.5 L-166.81 703.99" class="st7"/>
		</g>
		<g id="shape51-128" transform="translate(505.581,-435.6)">
			<title>Dynamic connector.51</title>
			<path d="M0 612.5 L-174.18 752.23" class="st7"/>
		</g>
		<g id="shape52-131" transform="translate(512.732,-414)">
			<title>Dynamic connector.52</title>
			<path d="M0 612.5 C-8.73 612.5 -28.99 682.48 -40.14 742.7 C-54.6 820.82 -53.73 882.5 -149.92 940.56" class="st7"/>
		</g>
		<g id="shape53-134" transform="translate(58.6825,-531.25)">
			<title>Generalization.53</title>
			<path d="M9 612.5 C-9.18 630.75 -14.82 702.97 -22.73 802.44 C-30.13 895.45 -39.52 1012.27 0.95 1040.35 L1.27 1040.51"
					class="st8"/>
		</g>
	</g>
</svg>
