<?xml version="1.0" encoding="UTF-8" standalone="no"?>
<!DOCTYPE svg PUBLIC "-//W3C//DTD SVG 1.1//EN" "http://www.w3.org/Graphics/SVG/1.1/DTD/svg11.dtd">
<!-- Generated by Microsoft Visio, SVG Export 2017-05-10 - Final Project Use Case Model.svg Page-1 -->
<svg xmlns="http://www.w3.org/2000/svg" xmlns:xlink="http://www.w3.org/1999/xlink" xmlns:ev="http://www.w3.org/2001/xml-events"
		width="8.21459in" height="8.13194in" viewBox="0 0 591.45 585.5" xml:space="preserve" color-interpolation-filters="sRGB"
		class="st9">
	<style type="text/css">
	<![CDATA[
		.st1 {fill:#73ae42;stroke:#ffffff;stroke-linecap:round;stroke-linejoin:round;stroke-width:0.5}
		.st2 {fill:#73ae42;font-family:Calibri;font-size:1.00001em}
		.st3 {marker-end:url(#mrkr14-15);stroke:#5592c9;stroke-linecap:round;stroke-linejoin:round;stroke-width:0.5}
		.st4 {fill:#5592c9;fill-opacity:1;stroke:#5592c9;stroke-opacity:1;stroke-width:0.16556291390728}
		.st5 {fill:#5b9bd5;stroke:#ffffff;stroke-linecap:round;stroke-linejoin:round;stroke-width:0.5}
		.st6 {fill:#ffffff;font-family:Calibri;font-size:1.00001em}
		.st7 {stroke:#5592c9;stroke-linecap:round;stroke-linejoin:round;stroke-width:0.5}
		.st8 {marker-end:url(#mrkr14-112);stroke:#5592c9;stroke-linecap:round;stroke-linejoin:round;stroke-width:0.5}
		.st9 {fill:none;fill-rule:evenodd;font-size:12px;overflow:visible;stroke-linecap:square;stroke-miterlimit:3}
	]]>
	</style>

	<defs id="Markers">
		<g id="lend14">
			<path d="M 3 -1 L 0 0 L 3 1 L 3 -1 " style="stroke-linecap:round;stroke-linejoin:round;fill:none"/>
		</g>
		<marker id="mrkr14-15" class="st4" refX="-18.12" orient="auto" markerUnits="strokeWidth" overflow="visible">
			<use xlink:href="#lend14" transform="scale(-6.04,-6.04) "/>
		</marker>
		<marker id="mrkr14-112" class="st4" refX="-17.4" orient="auto" markerUnits="strokeWidth" overflow="visible">
			<use xlink:href="#lend14" transform="scale(-6.04,-6.04) "/>
		</marker>
	</defs>
	<g>
		<title>Page-1</title>
		<g id="shape1-1" transform="translate(65.6955,-207.25)">
			<title>Actor</title>
			<desc>Employee</desc>
			<path d="M7.2 585.5 L7.2 549.5 L7.2 563.9 L0 563.9 L0 535.1 L3.6 531.5 L32.4 531.5 L36 535.1 L36 563.9 L28.8 563.9 L28.8
						 549.5 L28.8 585.5 L18 585.5 L18 556.7 L18 585.5 L7.2 585.5 ZM25.2 520.7 A7.2 7.2 -180 1 0 10.8 520.7 A7.2
						 7.2 -180 1 0 25.2 520.7 Z" class="st1"/>
			<text x="-6.1" y="600.3" class="st2">Employee</text>		</g>
		<g id="shape2-4" transform="translate(65.6955,-63.25)">
			<title>Actor.2</title>
			<desc>Manager</desc>
			<path d="M7.2 585.5 L7.2 549.5 L7.2 563.9 L0 563.9 L0 535.1 L3.6 531.5 L32.4 531.5 L36 535.1 L36 563.9 L28.8 563.9 L28.8
						 549.5 L28.8 585.5 L18 585.5 L18 556.7 L18 585.5 L7.2 585.5 ZM25.2 520.7 A7.2 7.2 -180 1 0 10.8 520.7 A7.2
						 7.2 -180 1 0 25.2 520.7 Z" class="st1"/>
			<text x="-3.93" y="600.3" class="st2">Manager</text>		</g>
		<g id="shape5-7" transform="translate(65.6955,-369.25)">
			<title>Actor.5</title>
			<desc>Technician</desc>
			<path d="M7.2 585.5 L7.2 549.5 L7.2 563.9 L0 563.9 L0 535.1 L3.6 531.5 L32.4 531.5 L36 535.1 L36 563.9 L28.8 563.9 L28.8
						 549.5 L28.8 585.5 L18 585.5 L18 556.7 L18 585.5 L7.2 585.5 ZM25.2 520.7 A7.2 7.2 -180 1 0 10.8 520.7 A7.2
						 7.2 -180 1 0 25.2 520.7 Z" class="st1"/>
			<text x="-8.07" y="600.3" class="st2">Technician</text>		</g>
		<g id="shape7-10" transform="translate(74.6955,-135.25)">
			<title>Generalization</title>
			<path d="M9 585.5 L9 522.56" class="st3"/>
		</g>
		<g id="shape8-16" transform="translate(74.6955,-369.25)">
			<title>Generalization.8</title>
			<path d="M9 585.5 L9 666.44" class="st3"/>
		</g>
		<g id="shape9-21" transform="translate(74.6955,-135.25)">
			<title>Generalization.9</title>
			<path d="M9 585.5 L9 522.56" class="st3"/>
		</g>
		<g id="shape10-26" transform="translate(254.696,-369.25)">
			<title>Use Case</title>
			<desc>Generate proposal</desc>
			<ellipse cx="54" cy="567.5" rx="54" ry="18" class="st5"/>
			<text x="8.45" y="571.1" class="st6">Generate proposal</text>		</g>
		<g id="shape11-29" transform="translate(254.696,-315.25)">
			<title>Use Case.11</title>
			<desc>Generate order</desc>
			<ellipse cx="54" cy="567.5" rx="54" ry="18" class="st5"/>
			<text x="16.29" y="571.1" class="st6">Generate order</text>		</g>
		<g id="shape12-32" transform="translate(254.696,-261.25)">
			<title>Use Case.12</title>
			<desc>Generate invoice</desc>
			<ellipse cx="54" cy="567.5" rx="54" ry="18" class="st5"/>
			<text x="12.47" y="571.1" class="st6">Generate invoice</text>		</g>
		<g id="shape13-35" transform="translate(245.431,-108.25)">
			<title>Use Case.13</title>
			<desc>View rented equipment</desc>
			<ellipse cx="63.2643" cy="567.5" rx="63.2643" ry="18" class="st5"/>
			<text x="5.36" y="571.1" class="st6">View rented equipment</text>		</g>
		<g id="shape14-38" transform="translate(101.696,-101.332)">
			<title>Dynamic connector</title>
			<path d="M0 585.42 L148.71 567.58" class="st7"/>
		</g>
		<g id="shape18-41" transform="translate(101.696,-254.77)">
			<title>Dynamic connector.18</title>
			<path d="M0 585.5 L182.06 468.98" class="st7"/>
		</g>
		<g id="shape19-44" transform="translate(101.696,-250.45)">
			<title>Dynamic connector.19</title>
			<path d="M0 585.5 L172.43 516.53" class="st7"/>
		</g>
		<g id="shape20-47" transform="translate(101.696,-246.13)">
			<title>Dynamic connector.20</title>
			<path d="M0 585.5 L158.32 560.17" class="st7"/>
		</g>
		<g id="shape21-50" transform="translate(254.696,-63.25)">
			<title>Use Case.21</title>
			<desc>View rental history</desc>
			<ellipse cx="54" cy="567.5" rx="54" ry="18" class="st5"/>
			<text x="7.88" y="571.1" class="st6">View rental history</text>		</g>
		<g id="shape22-53" transform="translate(101.696,-100.63)">
			<title>Dynamic connector.22</title>
			<path d="M0 588.32 L154.49 600.68" class="st7"/>
		</g>
		<g id="shape24-56" transform="translate(101.696,-105.01)">
			<title>Dynamic connector.24</title>
			<path d="M0 585.5 L163.57 533.16" class="st7"/>
		</g>
		<g id="shape23-59" transform="translate(240.375,-153.25)">
			<title>Use Case.23</title>
			<desc>View employee schedules</desc>
			<ellipse cx="68.3208" cy="567.5" rx="68.3208" ry="18" class="st5"/>
			<text x="5.36" y="571.1" class="st6">View employee schedules</text>		</g>
		<g id="shape25-62" transform="translate(101.696,-237.49)">
			<title>Dynamic connector.25</title>
			<path d="M0 585.5 L142.78 631.19 A3 3 0 0 1 148.49 633.02 L163.57 637.84" class="st7"/>
		</g>
		<g id="shape26-65" transform="translate(503.545,-108.25)">
			<title>Actor.26</title>
			<desc>Temporary Worker</desc>
			<path d="M7.2 585.5 L7.2 549.5 L7.2 563.9 L0 563.9 L0 535.1 L3.6 531.5 L32.4 531.5 L36 535.1 L36 563.9 L28.8 563.9 L28.8
						 549.5 L28.8 585.5 L18 585.5 L18 556.7 L18 585.5 L7.2 585.5 ZM25.2 520.7 A7.2 7.2 -180 1 0 10.8 520.7 A7.2
						 7.2 -180 1 0 25.2 520.7 Z" class="st1"/>
			<text x="-28.55" y="600.3" class="st2">Temporary Worker</text>		</g>
		<g id="shape27-68" transform="translate(236.874,-18.25)">
			<title>Use Case.27</title>
			<desc>View temporary worker list</desc>
			<ellipse cx="71.8215" cy="567.5" rx="71.8215" ry="18" class="st5"/>
			<text x="5.36" y="571.1" class="st6">View temporary worker list</text>		</g>
		<g id="shape28-71" transform="translate(101.696,-94.21)">
			<title>Dynamic connector.28</title>
			<path d="M0 585.5 L159.1 630.05" class="st7"/>
		</g>
		<g id="shape29-74" transform="translate(340.502,-52.3887)">
			<title>Dynamic connector.29</title>
			<path d="M0 585.5 L163.04 502.77" class="st7"/>
		</g>
		<g id="shape30-77" transform="translate(254.696,-207.25)">
			<title>Use Case.30</title>
			<desc>Track hours worked</desc>
			<ellipse cx="54" cy="567.5" rx="54" ry="18" class="st5"/>
			<text x="5.82" y="571.1" class="st6">Track hours worked</text>		</g>
		<g id="shape31-80" transform="translate(281.075,-209.783)">
			<title>Dynamic connector.31</title>
			<path d="M0 585.5 L-179.38 685.95" class="st7"/>
		</g>
		<g id="shape32-83" transform="translate(256.187,-226.63)">
			<title>Dynamic connector.32</title>
			<path d="M0 582.68 L-154.49 570.32" class="st7"/>
		</g>
		<g id="shape33-86" transform="translate(344.276,-211.71)">
			<title>Dynamic connector.33</title>
			<path d="M0 585.5 L159.27 646.11" class="st7"/>
		</g>
		<g id="shape36-89" transform="translate(101.696,-408.13)">
			<title>Dynamic connector.36</title>
			<path d="M0 585.5 L132.87 564.24" class="st7"/>
		</g>
		<g id="shape35-92" transform="translate(210.135,-423.25)">
			<title>Use Case.35</title>
			<desc>Evalute Contract Worker performance</desc>
			<ellipse cx="98.5609" cy="567.5" rx="98.5609" ry="18" class="st5"/>
			<text x="5.36" y="571.1" class="st6">Evalute Contract Worker performance</text>		</g>
		<g id="shape37-95" transform="translate(389.896,-431.048)">
			<title>Dynamic connector.37</title>
			<path d="M0 585.5 C71.8 629.3 94.48 658.78 108.01 692.83 C121.33 726.35 125.8 764.3 130.01 836.49" class="st7"/>
		</g>
		<g id="shape38-98" transform="translate(237.647,-477.25)">
			<title>Use Case.38</title>
			<desc>Track equipment problems</desc>
			<ellipse cx="71.0483" cy="567.5" rx="71.0483" ry="18" class="st5"/>
			<text x="5.36" y="571.1" class="st6">Track equipment problems</text>		</g>
		<g id="shape41-101" transform="translate(101.696,-412.45)">
			<title>Dynamic connector.41</title>
			<path d="M0 585.5 L168.98 517.91" class="st7"/>
		</g>
		<g id="shape42-104" transform="translate(65.6955,-495.25)">
			<title>Actor.42</title>
			<desc>Executive</desc>
			<path d="M7.2 585.5 L7.2 549.5 L7.2 563.9 L0 563.9 L0 535.1 L3.6 531.5 L32.4 531.5 L36 535.1 L36 563.9 L28.8 563.9 L28.8
						 549.5 L28.8 585.5 L18 585.5 L18 556.7 L18 585.5 L7.2 585.5 ZM25.2 520.7 A7.2 7.2 -180 1 0 10.8 520.7 A7.2
						 7.2 -180 1 0 25.2 520.7 Z" class="st1"/>
			<text x="-5.29" y="600.3" class="st2">Executive</text>		</g>
		<g id="shape43-107" transform="translate(67.8893,-497.328)">
			<title>Generalization.43</title>
			<path d="M5.01 585.5 C-54.15 570.11 -39.31 720.97 7.98 796.6 L8.18 796.9" class="st8"/>
		</g>
		<g id="shape44-113" transform="translate(254.696,-531.25)">
			<title>Use Case.44</title>
			<desc>Generate report</desc>
			<ellipse cx="54" cy="567.5" rx="54" ry="18" class="st5"/>
			<text x="14.28" y="571.1" class="st6">Generate report</text>		</g>
		<g id="shape45-116" transform="translate(101.696,-529.87)">
			<title>Association</title>
			<path d="M0 582.68 L154.49 570.32" class="st7"/>
		</g>
	</g>
</svg>
